<defs>
<font horiz-adv-x="450" ><font-face
    font-family="alegreyasc-italic"
    units-per-em="1000"
    panose-1="2 0 5 3 5 0 0 2 0 4"
    ascent="1016"
    descent="-345"
    alphabetic="0" />
<missing-glyph horiz-adv-x="192" />
<glyph unicode=" " glyph-name="space" horiz-adv-x="192" />
<glyph unicode="!" glyph-name="exclam" horiz-adv-x="274" d="M84 -12Q61 -12 49 2T36 38Q36 66 55 86T105 107Q128 107 141 93T154 57Q154 28 135 8T84 -12ZM100 210L147 666L156 676L240 694L248 683L139 209L110 202L100 210Z" />
<glyph unicode="&quot;" glyph-name="quotedbl" horiz-adv-x="287" d="M177 649L183 641Q156 531 123 429L96 415L86 417Q94 466 99 520T106 605L107 635L177 649ZM296 649L302 641Q275 531 242 429L215 415L204 417Q212 466 217 520T224 605L225 635L296 649Z" />
<glyph unicode="#" glyph-name="numbersign" horiz-adv-x="480" d="M66 362L64 372L83 409L186 408L240 568L281 573L288 567L232 407H282L332 406L387 568L428 573L435 567L379 406H482L485 397L462 361L362 362L349 323L325 252H427L430 243L408 207L310 208L256
43L216 35L209 41L265 209L199 210L164 209L109 43L68 35L62 41L118 209L12 208L10 218L29 255L133 254L152 311L170 363L66 362ZM202 323L178 253H228L280 252L300 311L317 363L253 364L216 363L202 323Z" />
<glyph unicode="$" glyph-name="dollar" horiz-adv-x="428" d="M327 649L296 507Q325 506 353 501T396 492L411 487L413 482Q393 421 379 349L343 346L338 350Q346 382 346 403Q346 430 332 443T286 458L249 288Q325 246 347 224Q380 192 380 154Q380 86 326 41T185
-8L155 -151L128 -154L124 -147L153 -9Q123 -8 94 -2T51 11L37 17L34 26Q52 87 62 161L103 165Q93 90 104 64T163 34L202 219Q173 235 159 244T124 270T94 306T85 348Q85 411 135 456T263 506L295 654L323 658L327 649ZM301 121Q301 162 231 203L194 34Q242 36
271 60T301 121ZM158 382Q158 345 218 306L220 304L253 459Q212 456 185 435T158 382Z" />
<glyph unicode="%" glyph-name="percent" horiz-adv-x="647" d="M197 390Q235 390 264 412T294 491Q294 531 271 557T206 583Q163 583 137 555T111 481T136 413T197 390ZM183 326Q129 326 96 363T63 459Q63 540 108 594T224 649Q280 649 311 611T343 520Q343 442
300 384T183 326ZM484 52Q521 52 550 74T580 153Q580 194 557 219T493 245Q450 245 424 217T398 143T423 75T484 52ZM470 -12Q416 -12 383 25T350 121Q350 202 395 256T511 311Q567 311 598 273T630 182Q630 104 587 46T470 -12ZM582 659L587 645Q413 386 325 245L110
-95L72 -76L67 -64Q198 135 287 275L543 678L582 659Z" />
<glyph unicode="&amp;" glyph-name="ampersand" horiz-adv-x="600" d="M602 217L526 228Q496 124 414 56T237 -12Q143 -12 89 48T34 211T94 388T230 464Q267 464 287 446T308 394Q308 382 305 370T298 352L294 347L298 345Q486 480 508 624L513 629H532Q554 570
554 543Q554 529 509 474Q454 408 367 344T98 174Q112 114 156 81T265 47Q343 47 397 97T471 236L419 244Q411 244 394 230T364 200L351 186H346L323 206V211L405 303L421 308Q439 308 511 296T604 283Q611 283 627 297T658 326L671 341H678L699 321V316L618 224L602
217ZM93 236V213Q181 268 209 298T237 364Q237 404 200 404Q156 404 125 356T93 236Z" />
<glyph unicode="&apos;" glyph-name="quotesingle" horiz-adv-x="169" d="M177 649L183 641Q156 531 123 429L96 415L86 417Q94 466 99 520T106 605L107 635L177 649Z" />
<glyph unicode="(" glyph-name="parenleft" horiz-adv-x="297" d="M73 163L94 336Q100 386 115 430T150 505T192 561T236 603T274 629T302 644L312 649H317L327 620L325 616Q319 614 310 609T276 582T231 534T190 458T163 351L142 178Q135 111 141 62T164 -21T198
-76T228 -106L241 -115V-120L216 -146H212Q210 -145 207 -144T191 -135T169 -120T144 -97T119 -65T96 -25T79 26T70 89T73 163Z" />
<glyph unicode=")" glyph-name="parenright" horiz-adv-x="301" d="M232 340L210 167Q204 117 189 73T154 -2T112 -59T68 -100T30 -126T2 -142L-8 -146H-12L-22 -117L-21 -113Q-15 -111 -6 -106T28 -79T73 -31T114 45T142 152L163 325Q171 387 164 440T140 525T106
578T76 610L63 618L64 623L88 649H92Q94 648 97 647T113 638T135 623T160 600T185 568T208 528T226 477T235 414T232 340Z" />
<glyph unicode="*" glyph-name="asterisk" horiz-adv-x="435" d="M124 666Q179 637 224 603L218 570L212 565L106 594Q106 632 115 662L124 666ZM129 473Q173 517 220 549L249 533L252 526Q238 507 223 484T200 448L192 434Q156 446 130 464L129 473ZM314 418Q286
474 270 528L294 551L302 552Q316 532 333 511T360 478L370 466Q348 436 323 417L314 418ZM423 577Q416 576 404 575T361 571T305 570L291 599L292 607Q315 614 341 624T381 640L395 646Q417 615 427 586L423 577ZM306 730Q295 669 277 616L243 611L237 615L232
725Q268 737 299 737L306 730Z" />
<glyph unicode="+" glyph-name="plus" horiz-adv-x="486" d="M299 500L308 494Q287 371 277 291L472 297L477 287L463 236L270 235L247 41L196 30L188 36Q203 147 214 235L25 234L20 243L37 292Q138 291 221 291L246 492L299 500Z" />
<glyph unicode="," glyph-name="comma" horiz-adv-x="228" d="M33 59L35 73Q69 99 93 99Q115 99 129 79T144 21Q144 -31 102 -77T4 -157L-14 -142V-132Q21 -108 43 -75T65 -11Q65 29 33 59Z" />
<glyph unicode="-" glyph-name="hyphen" horiz-adv-x="311" d="M279 299L285 290L274 236L40 210L34 218L47 270L215 290L279 299Z" />
<glyph unicode="." glyph-name="period" horiz-adv-x="229" d="M83 -12Q59 -12 47 2T34 38Q34 66 54 86T103 107Q127 107 140 93T153 57Q153 29 133 9T83 -12Z" />
<glyph unicode="/" glyph-name="slash" horiz-adv-x="316" d="M333 675L339 665Q228 377 167 215L46 -110H-2L-8 -102Q65 74 121 226L286 675H333Z" />
<glyph unicode="0" glyph-name="zero" horiz-adv-x="510" d="M214 -12Q131 -12 83 45T35 198Q35 328 113 416T304 505Q385 505 433 448T482 297Q482 167 404 78T214 -12ZM240 64Q319 64 371 119T423 260Q423 333 382 378T274 424Q194 424 144 369T93 225Q93 153
133 109T240 64Z" />
<glyph unicode="1" glyph-name="one" horiz-adv-x="340" d="M235 404Q191 132 191 89Q191 64 200 54T232 44L283 47L284 43L270 -3Q189 0 142 0Q120 0 89 -3T38 -9L18 -12L29 34Q83 39 102 60T129 148L157 376Q162 411 151 422T113 433L61 427L59 430L68 472Q82
472 176 487Q252 499 275 505H277L281 488Q260 471 251 455T235 404Z" />
<glyph unicode="2" glyph-name="two" horiz-adv-x="456" d="M6 -12L-1 6L85 94Q275 288 275 377Q275 406 259 422T212 438Q180 438 145 414T84 349H75L69 394Q100 442 150 473T247 505Q301 505 333 477T366 399T319 285T123 68L126 61H269Q322 61 344 78T387 152L428
157Q398 73 381 0L369 -7Q143 0 60 0L6 -12Z" />
<glyph unicode="3" glyph-name="three" horiz-adv-x="400" d="M-12 -32L-6 -26Q33 -35 70 -35Q146 -35 200 7T255 109Q255 198 97 199L92 204V239L156 255Q200 276 228 310T257 380Q257 408 239 425T191 442Q132 442 76 391H66L61 433L72 440Q83 448 101 458T140
479T185 497T230 505Q282 505 312 478T343 406Q343 362 309 321T219 251L218 246Q334 217 334 134Q334 81 288 25T173 -68T41 -105Q8 -105 -4 -88T-12 -32Z" />
<glyph unicode="4" glyph-name="four" horiz-adv-x="431" d="M-12 89Q-11 95 -8 107T-4 126L307 504Q308 504 309 504T311 505L343 495L300 143H389L394 135L379 80Q344 81 293 83L279 -86L273 -93L201 -105L196 -96Q213 7 224 85Q76 89 -12 89ZM250 367L70 143H231L259
367H250Z" />
<glyph unicode="5" glyph-name="five" horiz-adv-x="413" d="M340 201T340 141T290 23T168 -70T36 -105Q6 -105 -7 -90T-16 -32L-10 -26Q29 -35 67 -35Q148 -35 204 5T260 109Q260 153 219 179T75 224L68 235L114 479L123 487L306 495Q334 497 347 504T371 534L405
538L367 420L360 414Q263 422 152 422L130 293Q229 272 284 237Z" />
<glyph unicode="6" glyph-name="six" horiz-adv-x="437" d="M417 563Q409 560 395 554T341 525T268 473T197 397T138 294L141 292L150 298Q159 303 172 310T201 325T230 338T253 344Q323 344 361 300T400 196Q400 112 337 50T183 -12Q113 -12 73 38T33 167Q33
233 53 292T106 393T178 471T258 530T330 569T384 592L404 598L410 593L417 563ZM224 285Q177 285 123 248Q112 202 112 171Q112 109 137 73T208 36Q259 36 291 73T323 170Q323 218 296 251T224 285Z" />
<glyph unicode="7" glyph-name="seven" horiz-adv-x="404" d="M124 -105H117L60 -87L53 -65L351 425L187 418Q139 416 121 398T87 325L48 319Q73 416 87 492L94 497Q151 493 210 493H413L432 465Q344 318 159 -19L124 -105Z" />
<glyph unicode="8" glyph-name="eight" horiz-adv-x="466" d="M40 110Q40 221 184 289Q95 343 95 420Q95 489 152 543T290 598Q347 598 386 567T426 479Q426 378 312 319Q409 260 409 181Q409 103 344 46T189 -12Q125 -12 83 20T40 110ZM217 31Q263 31 299 65T336
147Q336 168 328 185T301 217T268 242T226 266Q220 269 217 271Q115 228 115 136Q115 93 143 62T217 31ZM169 456Q169 436 176 420T204 387T236 363T278 337Q349 378 349 460Q349 504 327 528T268 552Q226 552 198 523T169 456Z" />
<glyph unicode="9" glyph-name="nine" horiz-adv-x="437" d="M26 -70Q34 -67 48 -61T102 -32T176 19T247 95T305 198L302 201Q219 149 191 149Q120 149 82 193T44 297Q44 381 107 443T261 505Q331 505 371 455T411 326Q411 260 391 201T338 100T266 22T186 -37T114
-76T60 -98L40 -105L34 -100L26 -70ZM220 208Q264 208 321 245Q331 288 331 321Q331 383 306 420T236 457Q185 457 153 420T121 321Q121 273 148 241T220 208Z" />
<glyph unicode=":" glyph-name="colon" horiz-adv-x="228" d="M79 -12Q55 -12 43 2T30 38Q30 66 50 86T99 107Q123 107 136 93T149 57Q149 29 129 9T79 -12ZM113 268Q89 268 77 282T64 318Q64 346 84 366T133 387Q157 387 170 373T183 337Q183 309 163 289T113 268Z" />
<glyph unicode=";" glyph-name="semicolon" horiz-adv-x="228" d="M28 59L30 73Q64 99 88 99Q110 99 124 79T139 21Q139 -31 97 -77T-1 -157L-19 -142V-132Q16 -108 38 -75T60 -11Q60 29 28 59ZM113 268Q89 268 77 282T64 318Q64 346 84 366T133 387Q157 387 170
373T183 337Q183 309 163 289T113 268Z" />
<glyph unicode="&lt;" glyph-name="less" horiz-adv-x="484" d="M40 239L33 250L41 297L246 383L447 464L455 459L457 409Q345 370 262 336L109 276L108 270L259 200L422 121V110L387 70Q293 120 219 155L40 239Z" />
<glyph unicode="=" glyph-name="equal" horiz-adv-x="486" d="M463 220L467 210L453 159L235 158L15 157L11 166L27 215Q171 214 256 214L463 220ZM482 377L487 367L473 316L254 315L35 314L30 323L47 372Q190 371 276 371L482 377Z" />
<glyph unicode="&gt;" glyph-name="greater" horiz-adv-x="484" d="M456 295L462 284L454 237L250 151L48 70L40 75L38 125Q150 164 233 198L386 258L387 264L236 334L73 413V424L108 464Q202 414 276 379L456 295Z" />
<glyph unicode="?" glyph-name="question" horiz-adv-x="346" d="M101 203L93 323L97 337L220 413Q286 455 286 511Q286 614 107 626L106 637L145 690L159 694Q243 691 300 648T357 542Q357 507 348 480T316 431T277 395T224 360T172 328L168 319L176 224L172
216L109 199L101 203ZM109 -12Q86 -12 74 2T61 38Q61 66 80 86T130 107Q153 107 166 93T179 57Q179 28 160 8T109 -12Z" />
<glyph unicode="@" glyph-name="at" horiz-adv-x="801" d="M468 -12Q432 -12 432 17Q432 25 443 77T464 177L475 225L469 227Q379 56 282 -12Q243 -12 223 25T202 124Q202 206 237 285T325 412T431 460L531 444L540 469L545 470L576 455L584 443Q526 244 500 58L504
54Q610 54 665 115T721 280Q721 410 641 483T426 557Q278 557 187 455T95 206Q95 51 183 -52T448 -166V-173L422 -209Q234 -200 129 -88T24 188Q24 270 54 346T139 482T274 577T451 613Q600 613 695 525T790 304Q790 174 705 81T468 -12ZM301 69Q328 69 386 156T501
373Q447 406 400 406Q352 406 312 335T272 173Q272 131 280 100T301 69Z" />
<glyph unicode="A" glyph-name="A" horiz-adv-x="552" d="M456 111Q463 73 480 59T540 39L542 36L531 -3Q462 0 430 0T362 -2T306 -8L287 -10L285 -3L293 33Q348 37 366 47T385 83Q385 95 381 121L363 234Q339 235 263 235Q220 235 156 227L107 119Q93 90 93 73Q93
37 146 37H202V34L192 -7Q124 0 60 0L-45 -3L-32 42Q-3 45 15 61T54 120L302 631L358 648L366 649Q410 342 456 111ZM304 544L179 271H264Q311 271 355 277L311 544H304Z" />
<glyph unicode="B" glyph-name="B" horiz-adv-x="571" d="M138 0Q116 0 89 -3T46 -9L29 -12L39 31Q86 40 103 57T126 118L178 542Q182 575 177 585T149 596L117 594L115 598L127 639Q195 636 231 636L333 640Q417 640 465 606T514 508Q514 451 479 406T381 335Q444
321 479 284T514 196Q514 115 442 53T275 -10Q254 -10 209 -5T138 0ZM316 302L216 300L188 108Q184 69 207 53T291 37Q355 37 394 76T433 180Q433 281 316 302ZM223 349Q315 341 328 341Q332 342 339 344T366 358T399 384T425 427T437 491Q437 602 281 602Q271
602 267 598T260 579Q230 395 223 349Z" />
<glyph unicode="C" glyph-name="C" horiz-adv-x="604" d="M307 -12Q189 -12 117 60T45 253Q45 421 152 534T417 648Q452 648 495 642T564 630L590 625L593 619Q565 545 548 455L505 451Q514 490 514 510Q514 594 383 594Q272 594 202 508T132 282Q132 168 183
101T322 33Q452 33 508 193L551 197Q520 107 505 37L499 28Q422 -12 307 -12Z" />
<glyph unicode="D" glyph-name="D" horiz-adv-x="675" d="M286 -12Q188 0 140 0Q119 0 91 -3T46 -9L28 -12L39 31Q85 40 103 57T126 117L178 542Q182 574 177 585T150 596L116 594L115 598L126 639Q189 636 226 636L362 640Q491 640 572 567T653 376Q653 272 604
183T470 41T286 -12ZM298 596Q278 596 271 592T262 574Q191 130 191 107Q191 65 215 50T305 35Q423 35 495 124T567 356Q567 471 498 533T298 596Z" />
<glyph unicode="E" glyph-name="E" horiz-adv-x="567" d="M185 80Q185 55 199 48T257 41Q319 41 350 44T404 61T437 97T459 164L500 169L502 164Q474 82 455 -2L450 -7Q251 0 161 0Q129 0 96 -2T46 -8L29 -10L40 33Q84 39 102 56T125 117L178 542Q182 575 177
585T149 596L116 594L115 597L126 639Q200 636 257 636Q461 636 546 648L548 643Q523 571 506 479L462 475Q471 514 471 540Q471 573 446 581T329 590Q281 590 271 585T256 551L225 352Q234 352 271 352T324 351L442 362L445 358L425 302Q343 305 290 305Q253 305
216 298Q210 257 202 204T189 123T185 80Z" />
<glyph unicode="F" glyph-name="F" horiz-adv-x="490" d="M213 280L188 108Q183 72 190 56T222 40L291 43L292 39L279 -4Q188 0 137 0Q116 0 89 -3T46 -9L29 -12L39 31Q85 40 102 57T125 117L178 542Q182 575 177 585T149 596L116 594L115 597L126 639Q200 636
257 636Q445 636 528 648L530 643Q504 568 487 476L444 472Q453 514 453 541Q453 574 430 582T329 590Q281 590 271 585T256 551L223 335L322 334L424 345L426 341L407 284Q333 287 288 287Q253 287 213 280Z" />
<glyph unicode="G" glyph-name="G" horiz-adv-x="640" d="M307 -12Q189 -12 117 60T45 253Q45 421 152 534T417 648Q452 648 495 642T564 630L590 625L593 619Q565 545 548 455L505 451Q514 490 514 510Q514 594 383 594Q272 594 202 508T132 282Q132 168 183
101T322 33Q357 33 391 42T441 62L457 72L472 198Q476 232 467 242T425 252H358L357 256L371 303H374Q378 303 384 303T400 302T420 301T442 300T467 299T492 299L575 304L576 284Q546 264 536 195Q522 111 522 73L523 43L517 35Q507 30 489 22T416 1T307 -12Z"
/>
<glyph unicode="H" glyph-name="H" horiz-adv-x="723" d="M633 546Q565 131 565 84Q565 60 573 51T601 41L645 44Q646 42 645 41L632 -3Q555 0 513 0H482Q467 0 448 0T418 -2H407L420 41Q465 42 482 62T507 149L525 303Q422 304 377 304L215 293L198 173Q186 81
188 67Q190 52 197 47T223 42L267 45Q267 44 267 43T268 41L254 -3Q254 0 176 0Q133 0 81 -4T28 -12L39 31Q92 42 108 64T130 151L178 542Q182 575 177 585T149 596L117 594L115 597L127 640Q196 636 233 636Q251 636 276 638T317 644L333 646L325 603Q282 596
270 581T250 511L224 347Q251 347 305 347T387 346Q449 346 532 356L556 542Q561 574 555 585T527 596L494 594L492 597L505 640L520 639Q535 638 557 637T595 636Q615 636 644 638T692 644L711 646L703 603Q666 598 652 587T633 546Z" />
<glyph unicode="I" glyph-name="I" horiz-adv-x="346" d="M256 546Q186 140 186 85Q186 61 194 52T223 42L274 45L276 41L262 -3Q183 0 137 0Q116 0 88 -3T43 -9L26 -12L38 31Q84 40 102 58T126 118L178 542Q182 574 176 585T149 596L108 594V595Q107 596 107
597L119 640H123Q127 640 134 640T150 639T171 638T192 637T213 636T232 636Q252 636 279 638T324 644L342 646L332 603Q291 598 276 586T256 546Z" />
<glyph unicode="J" glyph-name="J" horiz-adv-x="313" d="M114 114L168 542Q172 574 166 584T139 595L92 591V594L103 636H206L316 645L308 603Q273 598 262 588T245 546Q214 362 180 118Q167 16 124 -46T-4 -143L-16 -111L-13 -103Q50 -67 76 -21T114 114Z" />
<glyph unicode="K" glyph-name="K" horiz-adv-x="601" d="M126 118L178 542Q182 575 177 585T149 596L117 594L115 597L127 640Q195 636 232 636Q250 636 275 638T317 644L333 646L325 603Q288 598 273 585T253 543L188 109Q182 70 189 56T223 42L267 45L269 41L254
-3Q180 0 137 0L28 -1L43 42Q89 47 105 61T126 118ZM242 315L244 328L442 517Q478 552 478 571Q478 595 421 599L419 603L431 644Q499 636 535 636L622 640L624 634L614 595Q588 590 565 575T493 513L315 339L451 118Q481 71 506 52T564 33L567 30L558 -2Q489 -14
479 -14Q432 -14 382 72L242 315Z" />
<glyph unicode="L" glyph-name="L" horiz-adv-x="485" d="M167 0Q135 0 103 -2T54 -8L38 -10L50 33Q88 39 104 57T125 117L178 542Q182 574 176 585T149 596L116 594V595Q115 596 115 597L127 640Q126 640 145 639T190 637T233 636Q251 636 276 638T317 644L333
646L325 604Q283 597 273 584T250 508Q234 422 211 269T188 91Q188 60 202 51T264 41Q349 41 379 65T435 182L477 186L478 184V182Q450 93 427 -4L422 -9Q256 0 167 0Z" />
<glyph unicode="M" glyph-name="M" horiz-adv-x="813" d="M374 -13L353 -19Q277 319 231 529H227Q138 86 138 66Q138 41 164 41L204 42V41Q205 40 205 39L191 -4Q131 0 99 0Q82 0 62 -2T29 -6L17 -8L28 35Q58 40 73 56T98 113Q102 133 127 249T170 455T189 555Q189
599 111 605L109 609L120 641Q193 636 223 636L286 640Q310 507 337 381T380 194L396 134H400Q499 344 624 639Q626 640 635 639T660 637T684 636L789 642L790 640V638L781 604Q738 599 720 587T699 549Q696 521 688 377T678 137Q677 78 684 60T714 41L741 43Q741
42 742 40L728 -3Q673 0 638 0Q619 0 595 -2T555 -6L540 -8L549 35Q606 42 612 85L633 529H628Q534 323 374 -13Z" />
<glyph unicode="N" glyph-name="N" horiz-adv-x="689" d="M520 134H524L576 552Q580 595 549 595Q544 595 539 595T529 595T521 594T515 594H513L511 598L525 640Q582 636 614 636Q632 636 655 638T694 642L709 645L699 601Q633 592 625 538L543 -28L518 -42Q450
96 377 237T264 450L225 522H221L161 81Q158 59 163 51T186 42H235L237 39L223 -4Q165 0 123 0L34 -8L45 35Q104 42 112 98L179 541Q183 571 167 584T102 602Q102 603 102 604T101 607L112 641Q167 636 193 636L255 640Q313 523 379 397T482 202L520 134Z" />
<glyph unicode="O" glyph-name="O" horiz-adv-x="665" d="M311 35Q417 35 487 122T557 343Q557 456 506 524T368 593Q265 593 196 505T127 285Q127 172 177 104T311 35ZM286 -12Q179 -12 112 62T45 254Q45 416 148 532T397 648Q506 648 575 574T644 382Q644 219
539 104T286 -12Z" />
<glyph unicode="P" glyph-name="P" horiz-adv-x="528" d="M115 598L127 640H130Q134 640 140 640T156 639T175 638T195 637T215 636T232 636L342 640Q433 640 484 601T535 489Q535 395 463 321T299 246H207L184 92Q180 64 188 53T222 41L275 45Q275 44 275 43T276
41L262 -3Q262 0 177 0Q137 0 87 -3T34 -8L46 35Q90 43 105 59T126 117L178 542Q182 574 176 585T149 596L117 594L115 598ZM217 301L317 286Q385 297 421 344T457 469Q457 534 417 565T290 596Q271 596 268 594T263 582Q240 467 217 301Z" />
<glyph unicode="Q" glyph-name="Q" horiz-adv-x="670" d="M286 -12Q179 -12 112 62T45 254Q45 416 148 532T397 648Q506 648 575 574T644 382Q644 245 567 139T371 0V-6Q465 -80 529 -110T651 -141Q671 -141 690 -139T720 -134L729 -131L733 -133L736 -148Q658
-214 640 -214Q570 -214 505 -177T287 -12H286ZM311 35Q417 35 487 122T557 343Q557 456 506 524T368 593Q265 593 196 505T127 285Q127 172 177 104T311 35Z" />
<glyph unicode="R" glyph-name="R" horiz-adv-x="585" d="M303 276H212L190 122Q182 67 192 53T249 39L250 36L237 -4Q182 -2 137 -1L28 -4L42 39Q88 44 104 59T126 117L178 541Q182 574 176 585T149 596L117 594L115 598L127 640Q196 636 232 636L339 640Q421
640 471 603T522 503Q522 436 482 382T365 293L450 115Q474 67 497 49T560 30L563 27L554 -5L473 -16Q449 -16 425 10T383 79L303 276ZM221 328L319 318L349 330Q440 383 443 486Q443 602 281 602Q272 602 268 598T260 579Q239 472 221 328Z" />
<glyph unicode="S" glyph-name="S" horiz-adv-x="507" d="M192 -12Q152 -12 113 -4T55 12L36 21L32 31Q54 106 66 205L107 210Q94 98 113 65T211 32Q277 32 319 66T361 154Q361 190 334 217T255 276Q170 326 145 350Q96 395 96 450Q96 532 163 590T328 648Q366
648 404 642T461 630L480 624L482 619Q458 542 441 450L405 446L400 451Q411 495 411 525Q411 566 388 582T306 599Q249 599 210 569T170 492Q170 442 243 390Q260 379 293 359T348 325T394 291T430 247T442 195Q442 106 372 47T192 -12Z" />
<glyph unicode="T" glyph-name="T" horiz-adv-x="523" d="M218 162L271 602Q225 600 205 599T161 592T130 581T112 559T97 527T84 477L40 473Q62 558 75 641L85 648L161 637H459L541 648L549 641Q547 618 546 593T544 547T543 511T543 486V477L499 473Q498 508
498 524T491 557T478 580T452 591T412 599T351 602Q336 531 305 326T273 92Q273 65 284 53T320 41L375 44L377 40L363 -3Q269 0 223 0L94 -4L106 36Q174 43 191 62T218 162Z" />
<glyph unicode="U" glyph-name="U" horiz-adv-x="655" d="M222 546L178 252Q175 225 175 202Q175 124 210 83T315 41Q395 41 442 85T500 215L535 542Q537 577 532 586T506 596L463 594V598L474 639Q545 636 581 636Q599 636 622 638T660 644L675 646L665 603Q622
598 609 588T592 546L550 206Q537 103 468 46T286 -12Q196 -12 148 35T101 170Q101 189 104 210L145 542Q149 575 143 585T115 596L82 594L81 598L93 639Q163 636 199 636Q217 636 242 638T284 644L300 646L291 603Q255 598 241 587T222 546Z" />
<glyph unicode="V" glyph-name="V" horiz-adv-x="584" d="M122 538Q112 594 39 595L38 599L50 639Q127 636 159 636Q181 636 217 639T279 645L304 648L306 641L297 604Q239 600 223 592T206 560Q206 540 222 423T256 200L272 93H280Q294 123 328 191T387 313T440
424T483 518T499 563Q499 599 437 599H386L384 603L395 644Q468 636 531 636L637 640L624 595Q594 594 581 585T553 547L285 5L227 -17Q173 270 122 538Z" />
<glyph unicode="W" glyph-name="W" horiz-adv-x="893" d="M592 5L535 -17L467 415H461L272 5L213 -17Q170 271 121 538Q111 594 42 595L40 599L51 639Q127 636 157 636T222 639T277 645L297 648L299 641L292 604Q235 600 219 592T202 559Q202 534 218 418T250
197L265 93H271Q298 151 328 215T396 356T456 480Q452 490 445 536Q433 592 364 595L363 599L375 639Q450 636 481 636Q506 636 541 639T598 645L621 648L622 641L614 604Q556 600 540 592T524 560Q524 539 540 422T572 199L588 93H594Q606 119 640 190T698 314T751
426T794 523T809 568Q809 599 747 599H699L697 603L709 644Q780 636 841 636L942 640L930 595Q902 593 889 585T862 547L592 5Z" />
<glyph unicode="X" glyph-name="X" horiz-adv-x="627" d="M170 180L293 316L190 517Q153 589 68 600V604L77 640Q172 636 214 636Q248 636 280 638T328 642L344 645L346 638L339 605Q258 599 258 568Q258 545 342 374Q353 388 401 443T473 530T497 576Q497 597
444 603Q444 604 444 605T443 607L452 644Q451 644 470 642T515 638T557 636L649 640L652 634L642 599Q601 592 576 573T499 496L362 342L478 124Q499 84 527 65T600 41L589 -3Q515 0 471 0L323 -8L321 -1L329 35Q410 39 410 74Q410 86 396 116L313 284L205 159Q167
115 156 97T144 64Q144 41 196 37L198 34L186 -7Q118 0 82 0L-11 -4L-14 3L-4 41Q38 53 75 84T170 180Z" />
<glyph unicode="Y" glyph-name="Y" horiz-adv-x="512" d="M195 567Q195 551 214 485T253 361T272 304H276L415 522Q436 554 436 575Q436 599 379 603L377 607L388 644Q387 644 405 642T450 638T492 636L581 640L584 634L573 599Q528 591 508 573T445 490Q436 476
431 469L314 294Q308 286 304 279T297 260T291 242T286 218T282 190T276 153T270 110Q265 70 271 56T303 41L350 44L352 40L338 -3Q260 0 219 0Q198 0 171 -3T126 -9L110 -12L121 31Q172 42 187 62T209 141L214 186Q220 246 200 301L137 483Q135 489 129 506T122
527T116 543T109 559T101 570T92 580T82 587T68 593T51 597T30 600L28 604L39 640Q98 636 142 636Q166 636 200 638T257 642L279 645L281 638L273 605Q225 601 210 593T195 567Z" />
<glyph unicode="Z" glyph-name="Z" horiz-adv-x="544" d="M447 13L431 -3L87 3L18 -3L10 28L439 596L269 590Q203 589 171 559T122 451L78 447Q106 548 119 639L130 648L297 637L541 630L548 602Q335 350 106 36L305 43Q355 44 390 84T453 210L496 215Q463 108 447 13Z" />
<glyph unicode="[" glyph-name="bracketleft" horiz-adv-x="297" d="M224 -137L49 -126Q93 150 106 250L142 629L321 640L325 634L315 603L203 579L123 -76L231 -100L234 -107L224 -137Z" />
<glyph unicode="\" glyph-name="backslash" horiz-adv-x="316" d="M89 665L98 675H144L199 226L247 -102L240 -110H191Q171 50 150 215L89 665Z" />
<glyph unicode="]" glyph-name="bracketright" horiz-adv-x="297" d="M81 640L256 629Q212 353 199 253L163 -126L-17 -137L-20 -131L-10 -100L102 -76L182 579L74 603L71 610L81 640Z" />
<glyph unicode="^" glyph-name="asciicircum" horiz-adv-x="485" d="M292 481L302 473Q336 348 358 275L416 87L373 57L362 58Q333 157 309 239L263 407H257L181 253L87 59L38 66L35 75Q88 185 137 276L244 479L292 481Z" />
<glyph unicode="_" glyph-name="underscore" horiz-adv-x="439" d="M403 -81L407 -91L393 -142Q303 -142 133 -143T-45 -144L-50 -135L-33 -86H-17Q-1 -86 24 -86T79 -86T140 -87T197 -87Q265 -87 328 -84Q402 -82 403 -81Z" />
<glyph unicode="`" glyph-name="grave" horiz-adv-x="382" d="M115 660L114 671L152 712L162 714Q240 620 312 542L292 523L283 521Q246 555 204 589T138 642L115 660Z" />
<glyph unicode="a" glyph-name="a" horiz-adv-x="485" d="M401 92Q407 62 420 51T466 36L468 33L459 -2Q401 0 372 0Q345 0 315 -1T268 -5L251 -7L249 -2L256 32Q300 35 314 42T328 69Q328 82 325 97L312 176Q303 176 273 176T232 177Q199 177 148 171L112 94Q101
73 101 61Q101 35 142 35H185V32L177 -5Q119 0 67 0L-22 -2L-11 38Q11 40 26 52T56 96L253 493L320 507L327 506Q365 257 401 92ZM264 416L169 215H235Q269 215 305 219L271 416H264Z" />
<glyph unicode="b" glyph-name="b" horiz-adv-x="498" d="M129 0Q111 0 87 -2T48 -6L33 -9L42 30Q79 37 93 50T111 97L151 419Q154 443 150 451T128 460L102 459L99 463L110 500Q172 497 201 497L293 501Q364 501 404 474T445 396Q445 309 339 262Q389 250 417
222T446 154Q446 87 387 40T244 -8Q230 -8 190 -4T129 0ZM276 231L196 229L175 90Q172 62 190 50T256 38Q306 38 336 66T366 141Q366 214 276 231ZM203 277Q274 270 286 270Q289 271 295 273T315 283T340 303T360 334T369 380Q369 461 248 461Q239 461 236 458T231
444Q216 360 203 277Z" />
<glyph unicode="c" glyph-name="c" horiz-adv-x="515" d="M263 -9Q165 -9 106 47T47 200Q47 334 132 420T350 507Q379 507 415 503T474 493L496 488L499 482Q476 422 462 348L416 344Q423 377 423 392Q423 455 322 455Q237 455 185 391T132 220Q132 135 170 86T277
37Q377 37 419 157L465 161Q441 87 429 30L423 22Q358 -9 263 -9Z" />
<glyph unicode="d" glyph-name="d" horiz-adv-x="574" d="M248 -9Q168 0 127 0Q109 0 86 -2T48 -6L33 -9L42 31Q80 38 94 51T112 97L151 418Q154 444 150 452T129 460L101 459L100 463L110 500Q166 497 196 497L310 501Q416 501 482 445T549 295Q549 168 461 80T248
-9ZM260 457Q245 457 240 454T232 439Q177 121 177 88Q177 58 195 48T263 37Q354 37 409 104T464 281Q464 367 412 412T260 457Z" />
<glyph unicode="e" glyph-name="e" horiz-adv-x="488" d="M173 71Q173 52 184 47T229 41Q318 41 344 56T387 135L429 139L431 134Q409 68 393 0L388 -5Q229 0 149 0Q121 0 92 -2T48 -6L33 -8L43 32Q78 36 92 50T111 98L151 418Q154 444 150 452T128 460L102 459L100
463L110 500Q177 497 227 497Q391 497 465 507L467 502Q447 441 433 369L388 366Q395 395 395 414Q395 440 375 446T284 453Q248 453 240 449T228 424L204 279Q212 279 241 279T283 278L379 286L382 282L365 231Q299 233 257 233Q228 233 196 228Q192 198 186 161T176
103T173 71Z" />
<glyph unicode="f" glyph-name="f" horiz-adv-x="429" d="M194 214L176 92Q171 64 177 52T204 40L259 43L261 38L250 -3Q173 0 131 0Q111 0 87 -2T48 -6L33 -9L42 30Q79 37 92 50T111 98L151 418Q154 444 150 452T128 460L102 459L100 463L110 500Q177 497 227
497Q379 497 449 507L452 502Q431 439 417 367L373 364Q380 395 380 415Q380 440 362 446T284 453Q248 453 240 449T228 424L203 265H282L366 273L368 268L352 217Q292 219 255 219Q229 219 194 214Z" />
<glyph unicode="g" glyph-name="g" horiz-adv-x="545" d="M260 -9Q163 -9 105 47T46 198Q46 331 132 419T350 507Q379 507 415 503T474 493L496 488L499 482Q476 424 461 351L417 347Q424 378 424 394Q424 456 322 456Q236 456 183 392T129 219Q129 134 168 85T275
35Q302 35 328 42T366 56L379 63L390 155Q393 181 386 188T354 196H302L300 200L313 241H316Q319 241 324 241T337 240T354 240T373 240T394 239T414 239Q484 239 484 243L485 223Q459 207 452 155Q440 85 440 57L441 33L435 26Q363 -9 260 -9Z" />
<glyph unicode="h" glyph-name="h" horiz-adv-x="614" d="M535 422Q483 112 483 72Q483 53 489 46T512 38L546 40Q547 38 547 37L536 -2Q475 0 438 0H411Q399 0 380 0T353 -1T341 -1L352 37Q388 38 401 53T421 118L435 232H323L195 224L182 133Q174 63 175 58Q177
46 183 42T203 38L238 40V39Q239 38 239 37L227 -2Q183 0 155 0Q119 0 76 -3T32 -9L42 30Q84 38 96 54T114 119L151 419Q154 444 150 452T127 460L102 459L99 463L110 500Q168 497 198 497L290 505L283 465Q249 461 240 450T223 398L203 276Q224 276 266 276T329
275Q381 275 441 282L459 419Q463 443 458 451T435 460L409 459L407 463L417 500Q417 497 501 497L599 505L592 466Q561 462 550 453T535 422Z" />
<glyph unicode="i" glyph-name="i" horiz-adv-x="307" d="M228 422Q174 117 174 71Q174 53 181 46T203 38L243 40L245 37L233 -2Q164 0 127 0Q109 0 85 -2T46 -6L31 -9L41 30Q78 37 92 51T111 97L151 419Q154 443 150 451T127 460L95 459L94 460Q94 462 94 463L104
500Q105 500 122 499T163 498T201 497L297 505L288 465Q256 461 244 453T228 422Z" />
<glyph unicode="j" glyph-name="j" horiz-adv-x="280" d="M102 91L143 419Q146 444 142 452T120 460L82 457L81 461L91 497L179 498L277 504L269 465Q241 461 232 454T219 422Q188 241 168 88Q158 9 120 -39T8 -114L-4 -87L-2 -80Q50 -51 71 -16T102 91Z" />
<glyph unicode="k" glyph-name="k" horiz-adv-x="522" d="M111 97L151 419Q154 444 150 452T127 460L102 459L99 463L110 500Q173 497 201 497L291 505L283 465Q253 461 241 451T225 419L175 91Q171 60 177 49T203 38L238 40L240 37L228 -2Q162 0 127 0L32 -1L45
37Q82 42 94 53T111 97ZM216 246L218 258L372 398Q401 425 401 441Q401 459 356 462L354 466L364 503Q423 497 453 497L530 501L532 495L523 460Q501 454 481 441T422 391L289 266L394 99Q417 63 437 48T484 32L487 28L479 -2Q417 -11 407 -11Q366 -11 327 55L216
246Z" />
<glyph unicode="l" glyph-name="l" horiz-adv-x="426" d="M153 0Q125 0 97 -2T54 -6L39 -8L50 32Q81 37 94 50T111 98L151 419Q154 444 149 452T127 460L101 459L99 463L109 500Q110 500 127 499T166 498T202 497L294 505L286 465Q250 460 241 450T223 396Q210
328 193 213T175 78Q175 56 186 49T233 41Q299 41 323 61T367 153L410 158Q410 155 412 153Q389 79 370 -2L365 -7Q231 0 153 0Z" />
<glyph unicode="m" glyph-name="m" horiz-adv-x="688" d="M325 -9L298 -14Q266 123 202 393H197Q132 72 132 57Q132 38 154 38H185L187 36L174 -3Q120 0 94 0L24 -6L33 33Q58 36 70 48T90 92Q94 110 112 195T146 351T161 430Q161 462 99 466L97 470L106 501Q169
497 195 497L255 501Q273 405 294 312T328 174L340 128H344Q421 287 515 499Q520 500 529 500T553 499T576 498L661 502L662 501Q662 500 662 499L654 466Q620 462 606 453T589 424Q578 330 574 112Q573 67 578 53T604 38L626 39Q626 38 626 38L627 36L615 -2Q570
0 540 0Q526 0 504 -1T466 -4L450 -6L459 33Q504 39 510 72L525 393H520Q385 116 325 -9Z" />
<glyph unicode="n" glyph-name="n" horiz-adv-x="590" d="M436 128H440L477 426Q481 460 455 460L426 459L424 463L436 501Q488 497 516 497L598 504L590 464Q537 457 530 415L466 -18L430 -29Q377 72 320 174T232 330L201 382H196L153 70Q151 52 156 45T175 38H213L216
35L204 -3Q151 0 117 0L37 -6L47 33Q96 39 101 82L153 416Q156 440 143 450T91 464Q89 468 89 469L98 501Q145 497 171 497L228 501Q273 415 325 322T406 178L436 128Z" />
<glyph unicode="o" glyph-name="o" horiz-adv-x="564" d="M269 37Q350 37 402 102T454 273Q454 355 415 404T310 454Q231 454 180 388T128 218Q128 135 166 86T269 37ZM248 -9Q158 -9 103 48T47 200Q47 330 130 418T334 507Q426 507 482 450T539 298Q539 168 455
80T248 -9Z" />
<glyph unicode="p" glyph-name="p" horiz-adv-x="461" d="M99 463L110 500L126 499Q142 498 163 498T199 497L295 501Q374 501 417 468T460 379Q460 304 401 246T264 187H189L173 80Q169 56 176 47T204 38L246 40V39Q247 38 247 37L235 -2Q183 0 158 0Q126 0 82
-2T37 -6L47 33Q82 39 94 51T111 97L151 418Q154 443 150 451T128 460L102 459L99 463ZM198 238L276 227Q383 245 383 363Q383 457 254 457Q239 457 237 456T233 445Q215 360 198 238Z" />
<glyph unicode="q" glyph-name="q" horiz-adv-x="568" d="M248 -9Q158 -9 103 48T47 200Q47 330 130 418T334 507Q426 507 482 450T539 298Q539 191 480 110T326 2V-2Q398 -56 449 -79T548 -102Q565 -102 581 -100T605 -96L613 -94L617 -97L620 -115Q550 -170
533 -170Q477 -170 425 -141T248 -9ZM269 37Q350 37 402 102T454 273Q454 355 415 404T310 454Q231 454 180 388T128 218Q128 135 166 86T269 37Z" />
<glyph unicode="r" glyph-name="r" horiz-adv-x="509" d="M264 210H193L177 100Q171 58 179 48T226 36L227 33L216 -3Q164 -1 128 -1L32 -4L44 36Q81 40 94 51T111 97L151 419Q154 444 150 452T128 460L102 459L99 463L110 500Q169 497 199 497L293 501Q365 501
408 471T452 390Q452 281 326 227L392 97Q411 60 430 45T480 30L483 26L475 -4L402 -12Q358 -12 326 61L264 210ZM201 259L279 251L285 254Q291 256 299 260T317 270T337 286T355 308T369 337T374 375Q374 461 247 461Q240 461 237 458T230 443Q216 373 201 259Z"
/>
<glyph unicode="s" glyph-name="s" horiz-adv-x="440" d="M169 -9Q135 -9 102 -3T53 10L37 17L34 26Q52 87 62 161L103 165Q92 84 108 59T185 34Q236 34 268 58T301 121Q301 148 279 168T215 212Q139 254 117 277Q85 309 85 348Q85 415 142 461T283 507Q315 507
347 502T395 492L411 487L413 482Q393 421 379 349L343 346L338 350Q346 382 346 403Q346 434 328 446T264 459T189 437T158 382Q158 345 218 306Q231 298 259 283T304 257T341 230T370 195T380 154Q380 83 321 37T169 -9Z" />
<glyph unicode="t" glyph-name="t" horiz-adv-x="456" d="M188 127L229 460Q151 458 133 450Q109 438 93 388Q90 378 86 362L42 358Q60 432 70 500L79 507L145 498H390L461 507L468 500L462 362L418 358Q417 431 400 444T306 460Q295 407 271 255T247 78Q247 38
286 38L330 40L332 37L320 -3Q239 0 200 0L87 -4L97 34Q153 39 166 53T188 127Z" />
<glyph unicode="u" glyph-name="u" horiz-adv-x="554" d="M200 421L166 193Q164 180 164 156Q164 100 191 71T271 41Q397 41 411 166L439 418Q441 445 437 452T416 460L383 459L382 462L392 500Q451 497 481 497L563 504L554 465Q520 460 510 453T496 422L464
164Q454 81 398 36T247 -9Q171 -9 131 27T91 131Q90 145 93 162L125 418Q127 444 123 452T101 460L74 459L73 462L84 500Q144 497 177 497L263 504L255 465Q226 461 215 452T200 421Z" />
<glyph unicode="v" glyph-name="v" horiz-adv-x="505" d="M108 414Q99 459 43 460L42 464L52 500Q116 497 144 497L267 506L269 500L261 466Q216 463 203 456T189 431T201 326T227 160L240 81H248Q415 415 415 436Q415 462 368 462H329L327 466L336 503Q398 497
449 497L537 500L526 460Q503 459 493 452T471 422L261 4L191 -13Q147 224 108 414Z" />
<glyph unicode="w" glyph-name="w" horiz-adv-x="762" d="M518 4L450 -13L398 307H393L250 4L181 -13Q144 224 107 414Q98 459 45 460L43 464L53 500Q115 497 142 497Q168 497 197 499T244 504L261 506L263 500L256 466Q212 463 199 456T185 430Q185 410 197 323T221
158L233 81H240L382 377L375 417Q367 459 311 460L310 464L320 500Q384 497 413 497Q435 497 464 499T512 504L531 506L533 500L525 466Q480 462 467 456T454 431T466 326T490 160L503 81H510Q519 100 545 155T590 248T629 332T662 406T674 440Q674 462 627 462H590L588
466L598 503Q658 497 707 497L792 500L782 460Q760 458 750 451T728 422L518 4Z" />
<glyph unicode="x" glyph-name="x" horiz-adv-x="543" d="M148 145L246 250L164 397Q135 452 66 462L65 466L74 500Q149 497 189 497Q216 497 243 498T286 502L300 504L302 498L295 467Q233 463 233 439Q233 422 299 298Q307 308 343 348T398 412T417 445Q417
462 375 465Q375 466 375 467T374 469L382 503Q383 503 400 502T438 499T473 497L552 500L554 495L546 462Q512 455 491 440T430 381L321 262L412 103Q447 43 512 38L502 -2Q439 0 404 0L277 -6L275 0L282 33Q344 36 344 62Q344 71 332 93L267 214L186 124Q158
93 149 80T140 56Q140 38 181 35L183 32L173 -5Q113 0 84 0L4 -3L1 3L10 38Q42 47 72 71T148 145Z" />
<glyph unicode="y" glyph-name="y" horiz-adv-x="455" d="M184 438Q184 429 193 398T214 334T234 274L244 247H249L353 405Q370 430 370 445Q370 462 325 465L323 469L333 503Q334 503 350 502T388 499T423 497L498 500L501 495L491 462Q465 457 448 445T419 419T377
361L283 224Q279 219 276 213T271 203T266 190T263 177T260 160T257 142T254 118T250 91Q245 60 251 49T278 38L317 40L318 37L307 -3Q236 0 201 0Q183 0 158 -2T118 -6L102 -9L112 30Q155 38 168 53T186 112L189 144Q194 190 177 231L123 375Q102 430 91 441Q75
457 37 462L35 466L45 500Q99 497 134 497L250 504L252 498L245 467Q208 464 196 458T184 438Z" />
<glyph unicode="z" glyph-name="z" horiz-adv-x="471" d="M389 11L375 -2L85 2L28 -3L19 25L362 458L233 453Q180 452 156 429T117 348L73 344Q96 428 106 500L115 507L253 498L461 494L468 469Q320 302 114 37L268 43Q308 44 336 74T385 170L428 175Q401 86 389 11Z" />
<glyph unicode="{" glyph-name="braceleft" horiz-adv-x="297" d="M47 247L54 268Q153 296 153 361Q153 380 144 435T134 517Q134 572 171 610T272 649L327 643L329 638L318 608Q291 613 274 613Q240 613 223 588T206 524Q206 506 209 457T213 388Q213 292 129
265L128 259Q187 235 187 169Q187 138 162 61T136 -40Q136 -65 149 -81T188 -97L236 -91L239 -97L228 -125Q203 -133 173 -133Q123 -133 95 -104T67 -30Q67 5 98 76T130 168Q130 228 47 247Z" />
<glyph unicode="|" glyph-name="bar" horiz-adv-x="355" d="M277 807L287 801Q239 457 219 291L152 -258L93 -269L85 -263Q129 97 152 276L216 796L277 807Z" />
<glyph unicode="}" glyph-name="braceright" horiz-adv-x="297" d="M259 269L253 248Q154 220 154 155Q154 136 163 81T173 -1Q173 -56 135 -94T35 -133L-20 -127L-22 -122L-11 -92Q16 -97 32 -97Q66 -97 83 -72T100 -8Q100 10 97 59T94 128Q94 224 178 251V257Q120
281 120 347Q120 378 145 455T170 556Q170 613 119 613L70 607L68 613L79 641Q104 649 134 649Q184 649 212 620T240 546Q240 511 209 440T177 348Q177 289 259 269Z" />
<glyph unicode="~" glyph-name="asciitilde" horiz-adv-x="486" d="M66 202H60L41 223V228L126 317L142 321Q169 321 257 300T366 278Q376 278 393 292T422 320L434 333H440L459 312V307L374 218L358 214Q331 214 243 235T134 257Q124 257 107 244T78 216L66 202Z" />
<glyph unicode="&#xa0;" glyph-name="nbspace" horiz-adv-x="192" />
<glyph unicode="&#xa1;" glyph-name="exclamdown" horiz-adv-x="273" d="M191 464Q214 464 226 450T239 414Q239 386 220 366T170 345Q147 345 134 359T121 395Q121 424 140 444T191 464ZM175 242L128 -214L119 -224L35 -242L27 -231L136 243L165 250L175 242Z" />
<glyph unicode="&#xa2;" glyph-name="cent" horiz-adv-x="344" d="M312 649L272 464Q317 461 345 443L350 432L316 365L302 362Q283 388 258 399L183 47Q211 52 238 75T282 134L296 133L311 109Q286 62 248 30T170 -10L140 -151L113 -154L109 -147L138 -11Q89
-7 62 37T34 153Q34 263 96 356T239 462L280 654L308 658L312 649ZM104 183Q104 76 151 52L227 405Q180 403 142 335T104 183Z" />
<glyph unicode="&#xa3;" glyph-name="sterling" horiz-adv-x="504" d="M413 142L430 140Q437 119 437 95Q437 50 412 19T351 -12Q318 -12 237 10T117 33Q74 33 31 3L24 7L14 41Q121 110 133 204L139 252Q140 275 130 283T83 293L80 299L91 333L150 344L152 361Q165
468 225 533T371 598Q438 598 468 583L472 572L441 509L423 506Q368 539 327 539Q245 539 226 415L214 337L368 340L371 337L354 284Q280 287 206 287L194 208Q180 128 118 78L172 89Q200 89 255 78T332 67Q397 67 413 142Z" />
<glyph unicode="&#xa4;" glyph-name="currency" horiz-adv-x="426" d="M86 343Q86 397 123 444L64 513L67 525L110 551Q137 517 166 482Q203 506 246 506Q288 506 320 482L395 557L407 554L430 514L354 445Q371 416 371 375Q371 328 338 281L398 215L394 204L350
174L295 240Q255 213 210 213T132 240L59 173L49 176L30 215Q32 215 100 277Q86 305 86 343ZM134 349Q134 312 157 287T216 261Q258 261 290 293T323 370Q323 407 300 432T240 458Q198 458 166 426T134 349Z" />
<glyph unicode="&#xa5;" glyph-name="yen" horiz-adv-x="528" d="M215 438Q215 429 223 405H222L278 248L385 407Q402 433 402 447Q402 462 354 464V471L363 508H370Q377 507 387 506T410 504T435 503T458 502L535 505L539 498L529 461Q492 455 475 442T427 384L379
316L489 318L494 309L487 279H352L312 222Q301 204 298 183L473 187L477 178L471 148H292Q282 88 282 69Q282 54 289 49T315 43L353 44L354 36L341 -2Q270 0 234 0Q217 0 192 -2T150 -8L134 -10L144 33Q193 41 203 59T222 148Q193 148 136 148T50 147L46 154L54
183H223Q220 212 210 236L192 279Q171 279 129 279T66 278L62 285L70 314H177Q171 330 162 356T148 393T134 420T117 442T94 453T60 460V469Q63 481 71 505Q127 502 164 502Q184 502 213 504T262 508L282 509L285 499L278 465Q240 461 228 455T215 438Z" />
<glyph unicode="&#xa6;" glyph-name="brokenbar" horiz-adv-x="355" d="M137 166L201 178L204 175L152 -258L92 -269L84 -263L137 166ZM229 376L167 367L163 370Q199 654 216 796L277 807L287 801Q252 552 229 376Z" />
<glyph unicode="&#xa7;" glyph-name="section" horiz-adv-x="490" d="M48 334Q48 382 83 429T178 511Q186 567 233 608T338 649Q375 649 402 635T429 602Q429 588 419 559T400 522H386Q377 556 353 578T299 600Q274 600 256 580T238 529Q238 498 260 468T315 412T380
359T434 297T457 222Q457 169 419 117T324 35Q316 -14 263 -59T146 -105Q100 -105 71 -84T42 -31Q42 -13 51 19T68 60H83Q86 7 112 -25T181 -58Q214 -58 238 -35T263 23Q263 54 241 83T188 139T124 192T70 256T48 334ZM109 375Q109 346 129 316T180 258T241 204T296
142T325 74Q394 117 394 180Q394 207 374 236T323 293T262 349T207 410T178 476Q109 435 109 375Z" />
<glyph unicode="&#xa8;" glyph-name="dieresis" horiz-adv-x="382" d="M309 566Q292 566 283 577T273 604Q273 626 289 642T329 659Q346 659 355 648T364 621Q364 599 348 583T309 566ZM149 566Q132 566 123 577T113 604Q113 626 129 642T169 659Q186 659 195
648T204 621Q204 599 188 583T149 566Z" />
<glyph unicode="&#xa9;" glyph-name="copyright" horiz-adv-x="665" d="M47 261Q47 397 147 497T379 598Q490 598 563 519T636 325Q636 189 536 89T304 -12Q193 -12 120 67T47 261ZM88 265Q88 165 151 97T309 28Q422 28 508 115T595 321Q595 421 532 489T374 558Q261
558 175 471T88 265ZM342 125Q277 125 239 162T200 263Q200 351 256 408T399 465Q418 465 442 462T480 456L495 453L497 449Q482 409 473 361L443 358Q447 380 447 390Q447 431 381 431Q324 431 290 389T256 276Q256 220 281 188T351 155Q417 155 445 235L475 237Q459
188 451 151L447 146Q405 125 342 125Z" />
<glyph unicode="&#xaa;" glyph-name="ordfeminine" horiz-adv-x="324" d="M244 407L246 405Q252 405 292 439L302 438L311 419Q236 343 210 343T184 365Q184 369 208 481L204 482Q146 380 94 343Q64 343 47 366T30 433Q30 510 78 576T181 643L240 632L245 647L251
650L288 641L293 631Q260 515 244 407ZM94 407T110 407T159 458T221 580Q190 600 161 600Q136 600 115 559T94 467Q94 407 110 407Z" />
<glyph unicode="&#xab;" glyph-name="guillemotleft" horiz-adv-x="411" d="M387 400L407 385V375L287 226L370 71L367 61L343 46L199 212L201 227L387 400ZM227 400L247 385V375L127 226L210 71L207 61L183 46L39 212L41 227L227 400Z" />
<glyph unicode="&#xac;" glyph-name="logicalnot" horiz-adv-x="486" d="M443 297L448 287Q433 224 427 177L411 41L360 30L352 36Q367 148 378 236L245 235L25 234L20 243L37 292Q180 291 266 291L443 297Z" />
<glyph unicode="&#xae;" glyph-name="registered" horiz-adv-x="449" d="M62 485Q62 577 129 644T285 711Q359 711 408 659T457 529Q457 437 391 370T235 303Q161 303 112 356T62 485ZM97 489Q97 425 137 382T239 338Q312 338 367 393T423 525Q423 589 383 632T281
676Q208 676 153 621T97 489ZM158 411L162 432Q178 433 183 440T191 470L204 581Q205 592 204 595T195 599H185L183 603L188 620H196Q204 620 214 620T229 619H240L270 621Q304 621 323 608T342 572Q342 527 288 503L310 460Q327 428 345 428L348 424Q347 412 339
410T308 407Q289 407 276 439L256 494H232Q225 461 225 448Q225 439 229 436T246 433L248 429L244 412Q226 413 213 413H201L158 411ZM246 589L236 520L263 517Q298 530 298 564Q298 597 253 597Q247 597 246 589Z" />
<glyph unicode="&#xaf;" glyph-name="overscore" horiz-adv-x="382" d="M383 653L387 643L374 596L238 595L100 594L95 603L110 648Q201 647 258 647L383 653Z" />
<glyph unicode="0;" glyph-name="degree" horiz-adv-x="290" d="M60 510Q60 567 101 608T198 649Q244 649 274 617T304 536Q304 480 263 439T167 397Q121 397 91 429T60 510ZM102 514Q102 483 123 461T176 439Q211 439 237 466T263 532Q263 563 241 585T188
607Q153 607 128 580T102 514Z" />
<glyph unicode="1;" glyph-name="plusminus" horiz-adv-x="486" d="M299 503L308 497Q288 384 278 304L474 310L478 300L464 249Q432 249 368 249T272 248L250 64L199 53L191 59Q205 162 215 248L26 247L22 256L38 305Q139 304 222 304L247 495L299 503ZM434
-12L438 -22L424 -73Q334 -73 164 -74T-13 -75L-17 -66L-1 -17H15Q31 -17 56 -17T111 -18T172 -18T228 -18Q296 -18 359 -15Q434 -13 434 -12Z" />
<glyph unicode="2;" glyph-name="two.sups" horiz-adv-x="318" d="M16 344L12 369L89 446Q202 571 202 631Q202 669 158 669Q106 669 63 607H55L51 648Q75 683 111 705T181 728Q224 728 251 707T278 651Q278 613 243 561T112 407L114 402H190Q221 402 234
413T260 459L299 463Q277 401 267 352L258 346Q113 351 57 351L16 344Z" />
<glyph unicode="3;" glyph-name="three.sups" horiz-adv-x="284" d="M23 400L30 407Q56 399 80 399Q122 399 150 419T179 471Q179 523 88 523L83 528V560L125 569Q150 581 166 601T183 641Q183 657 173 666T147 676Q110 676 74 648H67L61 685Q135 728 173
728Q209 728 232 710T255 661Q255 633 234 607T176 565L175 560Q249 538 249 481Q249 432 188 388T61 343Q37 343 29 356T23 400Z" />
<glyph unicode="4;" glyph-name="acute" horiz-adv-x="382" d="M366 672L365 661Q281 597 197 521L188 523L168 542Q200 577 237 620T296 689L318 715L328 713L366 672Z" />
<glyph unicode="5;" glyph-name="mu" horiz-adv-x="500" d="M96 445L185 464L189 452Q176 424 151 292T126 135Q126 57 195 57Q209 57 225 63T256 77T282 93T301 107L308 113L336 346L341 439L346 446L434 464L439 452Q428 431 401 281T374 97Q374 59 408
59Q421 59 436 65T460 78L468 84L480 68Q473 59 462 46T426 10T385 -12Q347 -12 327 7T308 65L303 67Q215 -2 171 -12Q131 -12 103 14L98 11L83 -78Q79 -101 77 -136T74 -196V-220L68 -227L0 -242L-5 -230Q23 -88 46 73L84 328Q87 351 88 378T90 422V438L96 445Z"
/>
<glyph unicode="6;" glyph-name="paragraph" horiz-adv-x="539" d="M316 134L371 578Q371 588 368 590T346 592Q290 592 261 538T231 393Q231 301 275 227L273 212Q182 220 124 272T65 417Q65 511 129 576T294 641Q321 641 365 639T419 637L540 640L529 598L527
594Q485 596 468 587T446 549Q429 487 386 154Q378 88 366 44T330 -36T269 -88T176 -105Q126 -105 92 -84T58 -20Q58 2 72 30T106 78H121Q113 12 133 -23T196 -58Q254 -58 278 -17T316 134Z" />
<glyph unicode="7;" glyph-name="middot" horiz-adv-x="229" d="M105 168Q81 168 69 182T57 218Q57 246 76 266T125 287Q149 287 162 273T175 237Q175 209 155 189T105 168Z" />
<glyph unicode="8;" glyph-name="cedilla" horiz-adv-x="383" d="M107 -85L152 23H194L161 -50Q164 -52 175 -61T192 -74T207 -87T220 -102T229 -118T233 -135Q233 -173 191 -203T105 -233Q82 -233 63 -224T43 -199Q43 -183 75 -141H83Q81 -168 93 -183T129
-198Q150 -198 165 -187T180 -158Q180 -132 107 -85Z" />
<glyph unicode="9;" glyph-name="one.sups" horiz-adv-x="240" d="M184 662Q175 616 162 525T149 415Q149 386 173 386L205 388L206 385L195 349Q140 351 109 351L19 344L28 379Q58 381 72 392T89 430L115 639Q117 661 111 667T87 674L55 671L53 674L60 706Q108
712 132 716L210 728L214 713Q191 694 184 662Z" />
<glyph unicode="a;" glyph-name="ordmasculine" horiz-adv-x="291" d="M141 387Q169 387 186 422T203 515Q203 599 159 599Q132 599 115 565T97 478Q97 436 109 412T141 387ZM116 343Q78 343 56 372T33 453Q33 533 77 590T185 647Q225 647 247 621T269 546Q269
461 225 402T116 343Z" />
<glyph unicode="b;" glyph-name="guillemotright" horiz-adv-x="411" d="M228 46L207 61L208 71L327 220L245 375L247 385L271 400L416 234L414 219L228 46ZM68 46L47 61L48 71L167 220L85 375L87 385L111 400L256 234L254 219L68 46Z" />
<glyph unicode="c;" glyph-name="onequarter" horiz-adv-x="685" d="M556 659L561 645Q387 386 299 245L84 -95L46 -76L41 -64Q172 135 261 275L517 678L556 659ZM184 578Q175 532 162 441T149 331Q149 302 173 302L205 304L206 301L195 265Q140 267 109 267L19
260L28 295Q58 297 72 308T89 346L115 555Q117 577 111 583T87 590L55 587L53 590L60 622Q108 628 132 632L210 644L214 629Q191 610 184 578ZM384 107L390 141L582 376L586 377L625 371L600 152H652L656 145L645 101L594 103L586 6L581 0L519 -7L515 -1Q526 57
532 104L384 107ZM547 277L447 152H538L553 277H547Z" />
<glyph unicode="d;" glyph-name="onehalf" horiz-adv-x="713" d="M556 659L561 645Q387 386 299 245L84 -95L46 -76L41 -64Q172 135 261 275L517 678L556 659ZM184 578Q175 532 162 441T149 331Q149 302 173 302L205 304L206 301L195 265Q140 267 109 267L19
260L28 295Q58 297 72 308T89 346L115 555Q117 577 111 583T87 590L55 587L53 590L60 622Q108 628 132 632L210 644L214 629Q191 610 184 578ZM400 -7L396 18L473 95Q586 220 586 280Q586 318 542 318Q490 318 447 256H439L435 297Q459 332 495 354T565 377Q608
377 635 356T662 300Q662 262 627 210T496 56L498 51H574Q605 51 618 62T644 108L683 112Q661 50 651 1L642 -5Q497 0 441 0L400 -7Z" />
<glyph unicode="e;" glyph-name="threequarters" horiz-adv-x="689" d="M560 659L565 645Q391 386 303 245L88 -95L50 -76L45 -64Q176 135 265 275L521 678L560 659ZM388 107L394 141L586 376L590 377L629 371L604 152H656L660 145L649 101L598 103L590 6L585
0L523 -7L519 -1Q530 57 536 104L388 107ZM551 277L451 152H542L557 277H551ZM23 316L30 323Q56 315 80 315Q122 315 150 335T179 387Q179 439 88 439L83 444V476L125 485Q150 497 166 517T183 557Q183 573 173 582T147 592Q110 592 74 564H67L61 601Q135 644 173
644Q209 644 232 626T255 577Q255 549 234 523T176 481L175 476Q249 454 249 397Q249 348 188 304T61 259Q37 259 29 272T23 316Z" />
<glyph unicode="f;" glyph-name="questiondown" horiz-adv-x="346" d="M247 249L255 129L250 115L127 39Q61 -4 61 -59Q61 -162 240 -174L241 -185L203 -238L189 -242Q105 -239 48 -196T-9 -90Q-9 -55 0 -28T32 21T71 57T124 92T176 124L180 133L172 228L176
236L238 253L247 249ZM238 464Q262 464 274 450T287 414Q287 386 267 366T218 345Q194 345 182 359T169 395Q169 423 188 443T238 464Z" />
<glyph unicode="0;" glyph-name="Agrave" horiz-adv-x="558" d="M456 111Q463 73 480 59T540 39L542 36L531 -3Q462 0 430 0T362 -2T306 -8L287 -10L285 -3L293 33Q348 37 366 47T385 83Q385 95 381 121L363 234Q339 235 263 235Q220 235 156 227L107 119Q93
90 93 73Q93 37 146 37H202V34L192 -7Q124 0 60 0L-45 -3L-32 42Q-3 45 15 61T54 120L302 631L358 648L366 649Q410 342 456 111ZM304 544L179 271H264Q311 271 355 277L311 544H304ZM209 777L205 787L221 835L230 841Q335 781 429 732L423 708L415 703L209 777Z"
/>
<glyph unicode="1;" glyph-name="Aacute" horiz-adv-x="558" d="M456 111Q463 73 480 59T540 39L542 36L531 -3Q462 0 430 0T362 -2T306 -8L287 -10L285 -3L293 33Q348 37 366 47T385 83Q385 95 381 121L363 234Q339 235 263 235Q220 235 156 227L107 119Q93
90 93 73Q93 37 146 37H202V34L192 -7Q124 0 60 0L-45 -3L-32 42Q-3 45 15 61T54 120L302 631L358 648L366 649Q410 342 456 111ZM304 544L179 271H264Q311 271 355 277L311 544H304ZM512 787L508 777Q407 743 302 703L294 708L288 732L487 841L496 835L512 787Z"
/>
<glyph unicode="2;" glyph-name="Acircumflex" horiz-adv-x="558" d="M456 111Q463 73 480 59T540 39L542 36L531 -3Q462 0 430 0T362 -2T306 -8L287 -10L285 -3L293 33Q348 37 366 47T385 83Q385 95 381 121L363 234Q339 235 263 235Q220 235 156 227L107
119Q93 90 93 73Q93 37 146 37H202V34L192 -7Q124 0 60 0L-45 -3L-32 42Q-3 45 15 61T54 120L302 631L358 648L366 649Q410 342 456 111ZM304 544L179 271H264Q311 271 355 277L311 544H304ZM221 713L210 735L357 846H371L491 735L474 713L465 712L355 777L230
712L221 713Z" />
<glyph unicode="3;" glyph-name="Atilde" horiz-adv-x="558" d="M456 111Q463 73 480 59T540 39L542 36L531 -3Q462 0 430 0T362 -2T306 -8L287 -10L285 -3L293 33Q348 37 366 47T385 83Q385 95 381 121L363 234Q339 235 263 235Q220 235 156 227L107 119Q93
90 93 73Q93 37 146 37H202V34L192 -7Q124 0 60 0L-45 -3L-32 42Q-3 45 15 61T54 120L302 631L358 648L366 649Q410 342 456 111ZM304 544L179 271H264Q311 271 355 277L311 544H304ZM217 699H211L191 720L192 725L275 804L290 808Q307 808 360 792T427 775Q437
775 453 786T482 809L493 820H499L518 799V794L435 715L419 711Q402 711 349 727T283 744Q273 744 257 733T228 710L217 699Z" />
<glyph unicode="4;" glyph-name="Adieresis" horiz-adv-x="558" d="M456 111Q463 73 480 59T540 39L542 36L531 -3Q462 0 430 0T362 -2T306 -8L287 -10L285 -3L293 33Q348 37 366 47T385 83Q385 95 381 121L363 234Q339 235 263 235Q220 235 156 227L107 119Q93
90 93 73Q93 37 146 37H202V34L192 -7Q124 0 60 0L-45 -3L-32 42Q-3 45 15 61T54 120L302 631L358 648L366 649Q410 342 456 111ZM304 544L179 271H264Q311 271 355 277L311 544H304ZM424 725Q407 725 398 736T389 763Q389 785 405 801T444 818Q461 818 470 807T480
780Q480 758 464 742T424 725ZM264 725Q247 725 238 736T229 763Q229 785 245 801T284 818Q301 818 310 807T320 780Q320 758 304 742T264 725Z" />
<glyph unicode="5;" glyph-name="Aring" horiz-adv-x="558" d="M456 111Q463 73 480 59T540 39L542 36L531 -3Q462 0 430 0T362 -2T306 -8L287 -10L285 -3L293 33Q348 37 366 47T385 83Q385 95 381 121L363 234Q339 235 263 235Q220 235 156 227L107 119Q93
90 93 73Q93 37 146 37H202V34L192 -7Q124 0 60 0L-45 -3L-32 42Q-3 45 15 61T54 120L302 631L358 648L366 649Q410 342 456 111ZM304 544L179 271H264Q311 271 355 277L311 544H304ZM349 712Q397 712 397 757Q397 799 353 799Q331 799 319 787T306 754T319 723T349
712ZM338 674Q307 674 290 692T273 742Q273 783 299 810T366 838Q400 838 416 819T432 772Q432 733 406 704T338 674Z" />
<glyph unicode="6;" glyph-name="AE" horiz-adv-x="778" d="M266 35Q313 38 340 60T367 117V153L365 277L269 269L180 260L96 120Q75 85 75 69Q75 52 86 46T124 39H178L167 -7Q96 0 35 0L-31 -4L-33 30Q3 65 38 121L329 579Q326 595 307 595L274 593L272 597L285
640Q285 637 438 637Q650 637 726 649L728 643Q703 570 686 478L639 474Q648 512 648 537Q648 570 622 579T502 588Q459 588 446 582T433 557L435 327L551 338L641 351L645 346L626 294L543 292L435 283L441 112Q442 75 458 60T515 44Q560 44 585 46T630 55T662
76T682 110T700 166L744 171L747 166Q719 83 700 -1L695 -7Q696 -6 645 -5T522 -2T404 0Q371 0 336 -2T280 -8L261 -10L260 -3L266 35ZM213 310L293 315L364 321L363 540H354L213 310Z" />
<glyph unicode="7;" glyph-name="Ccedilla" horiz-adv-x="603" d="M254 -85L284 -11Q175 -4 110 67T45 253Q45 421 152 534T417 648Q452 648 495 642T564 630L590 625L593 619Q565 545 548 455L505 451Q514 490 514 510Q514 594 383 594Q272 594 202 508T132
282Q132 168 183 101T322 33Q452 33 508 193L551 197Q520 107 505 37L499 28Q430 -7 325 -11L308 -50Q311 -52 322 -61T339 -74T354 -87T367 -102T376 -118T380 -135Q380 -173 338 -203T252 -233Q229 -233 210 -224T190 -199Q190 -183 222 -141H230Q228 -168 240
-183T276 -198Q297 -198 312 -187T327 -158Q327 -132 254 -85Z" />
<glyph unicode="8;" glyph-name="Egrave" horiz-adv-x="568" d="M185 80Q185 55 199 48T257 41Q319 41 350 44T404 61T437 97T459 164L500 169L502 164Q474 82 455 -2L450 -7Q251 0 161 0Q129 0 96 -2T46 -8L29 -10L40 33Q84 39 102 56T125 117L178 542Q182
575 177 585T149 596L116 594L115 597L126 639Q200 636 257 636Q461 636 546 648L548 643Q523 571 506 479L462 475Q471 514 471 540Q471 573 446 581T329 590Q281 590 271 585T256 551L225 352Q234 352 271 352T324 351L442 362L445 358L425 302Q343 305 290 305Q253
305 216 298Q210 257 202 204T189 123T185 80ZM224 777L220 787L236 835L245 841Q350 781 444 732L438 708L430 703L224 777Z" />
<glyph unicode="9;" glyph-name="Eacute" horiz-adv-x="568" d="M185 80Q185 55 199 48T257 41Q319 41 350 44T404 61T437 97T459 164L500 169L502 164Q474 82 455 -2L450 -7Q251 0 161 0Q129 0 96 -2T46 -8L29 -10L40 33Q84 39 102 56T125 117L178 542Q182
575 177 585T149 596L116 594L115 597L126 639Q200 636 257 636Q461 636 546 648L548 643Q523 571 506 479L462 475Q471 514 471 540Q471 573 446 581T329 590Q281 590 271 585T256 551L225 352Q234 352 271 352T324 351L442 362L445 358L425 302Q343 305 290 305Q253
305 216 298Q210 257 202 204T189 123T185 80ZM485 787L481 777Q380 743 275 703L267 708L261 732L460 841L469 835L485 787Z" />
<glyph unicode="a;" glyph-name="Ecircumflex" horiz-adv-x="568" d="M185 80Q185 55 199 48T257 41Q319 41 350 44T404 61T437 97T459 164L500 169L502 164Q474 82 455 -2L450 -7Q251 0 161 0Q129 0 96 -2T46 -8L29 -10L40 33Q84 39 102 56T125 117L178 542Q182
575 177 585T149 596L116 594L115 597L126 639Q200 636 257 636Q461 636 546 648L548 643Q523 571 506 479L462 475Q471 514 471 540Q471 573 446 581T329 590Q281 590 271 585T256 551L225 352Q234 352 271 352T324 351L442 362L445 358L425 302Q343 305 290 305Q253
305 216 298Q210 257 202 204T189 123T185 80ZM236 713L225 735L372 846H386L506 735L489 713L480 712L370 777L245 712L236 713Z" />
<glyph unicode="b;" glyph-name="Edieresis" horiz-adv-x="568" d="M185 80Q185 55 199 48T257 41Q319 41 350 44T404 61T437 97T459 164L500 169L502 164Q474 82 455 -2L450 -7Q251 0 161 0Q129 0 96 -2T46 -8L29 -10L40 33Q84 39 102 56T125 117L178 542Q182
575 177 585T149 596L116 594L115 597L126 639Q200 636 257 636Q461 636 546 648L548 643Q523 571 506 479L462 475Q471 514 471 540Q471 573 446 581T329 590Q281 590 271 585T256 551L225 352Q234 352 271 352T324 351L442 362L445 358L425 302Q343 305 290 305Q253
305 216 298Q210 257 202 204T189 123T185 80ZM439 725Q422 725 413 736T404 763Q404 785 420 801T459 818Q476 818 485 807T495 780Q495 758 479 742T439 725ZM279 725Q262 725 253 736T244 763Q244 785 260 801T299 818Q316 818 325 807T335 780Q335 758 319
742T279 725Z" />
<glyph unicode="c;" glyph-name="Igrave" horiz-adv-x="347" d="M256 546Q186 140 186 85Q186 61 194 52T223 42L274 45L276 41L262 -3Q183 0 137 0Q116 0 88 -3T43 -9L26 -12L38 31Q84 40 102 58T126 118L178 542Q182 574 176 585T149 596L108 594V595Q107
596 107 597L119 640H123Q127 640 134 640T150 639T171 638T192 637T213 636T232 636Q252 636 279 638T324 644L342 646L332 603Q291 598 276 586T256 546ZM98 777L94 787L110 835L119 841Q224 781 318 732L312 708L304 703L98 777Z" />
<glyph unicode="d;" glyph-name="Iacute" horiz-adv-x="347" d="M256 546Q186 140 186 85Q186 61 194 52T223 42L274 45L276 41L262 -3Q183 0 137 0Q116 0 88 -3T43 -9L26 -12L38 31Q84 40 102 58T126 118L178 542Q182 574 176 585T149 596L108 594V595Q107
596 107 597L119 640H123Q127 640 134 640T150 639T171 638T192 637T213 636T232 636Q252 636 279 638T324 644L342 646L332 603Q291 598 276 586T256 546ZM391 787L387 777Q286 743 181 703L173 708L167 732L366 841L375 835L391 787Z" />
<glyph unicode="e;" glyph-name="Icircumflex" horiz-adv-x="347" d="M256 546Q186 140 186 85Q186 61 194 52T223 42L274 45L276 41L262 -3Q183 0 137 0Q116 0 88 -3T43 -9L26 -12L38 31Q84 40 102 58T126 118L178 542Q182 574 176 585T149 596L108 594V595Q107
596 107 597L119 640H123Q127 640 134 640T150 639T171 638T192 637T213 636T232 636Q252 636 279 638T324 644L342 646L332 603Q291 598 276 586T256 546ZM110 713L99 735L246 846H260L380 735L363 713L354 712L244 777L119 712L110 713Z" />
<glyph unicode="f;" glyph-name="Idieresis" horiz-adv-x="347" d="M256 546Q186 140 186 85Q186 61 194 52T223 42L274 45L276 41L262 -3Q183 0 137 0Q116 0 88 -3T43 -9L26 -12L38 31Q84 40 102 58T126 118L178 542Q182 574 176 585T149 596L108 594V595Q107
596 107 597L119 640H123Q127 640 134 640T150 639T171 638T192 637T213 636T232 636Q252 636 279 638T324 644L342 646L332 603Q291 598 276 586T256 546ZM313 725Q296 725 287 736T278 763Q278 785 294 801T333 818Q350 818 359 807T369 780Q369 758 353 742T313
725ZM153 725Q136 725 127 736T118 763Q118 785 134 801T173 818Q190 818 199 807T209 780Q209 758 193 742T153 725Z" />
<glyph unicode="&#xd0;" glyph-name="Eth" horiz-adv-x="684" d="M296 -12Q198 0 150 0Q129 0 101 -3T56 -9L38 -12L49 31Q95 40 113 57T136 117L159 304H26L20 311L31 343H164L188 542Q192 574 187 585T160 596L126 594L125 598L136 639Q199 636 236 636L372
640Q501 640 582 567T663 376Q663 272 614 183T480 41T296 -12ZM308 596Q288 596 281 592T272 574L234 343H396L400 336L390 304H228Q201 131 201 107Q201 65 225 50T315 35Q433 35 505 124T577 356Q577 471 508 533T308 596Z" />
<glyph unicode="&#xd1;" glyph-name="Ntilde" horiz-adv-x="691" d="M520 134H524L576 552Q580 595 549 595Q544 595 539 595T529 595T521 594T515 594H513L511 598L525 640Q582 636 614 636Q632 636 655 638T694 642L709 645L699 601Q633 592 625 538L543 -28L518
-42Q450 96 377 237T264 450L225 522H221L161 81Q158 59 163 51T186 42H235L237 39L223 -4Q165 0 123 0L34 -8L45 35Q104 42 112 98L179 541Q183 571 167 584T102 602Q102 603 102 604T101 607L112 641Q167 636 193 636L255 640Q313 523 379 397T482 202L520 134ZM283
699H277L257 720L258 725L341 804L356 808Q373 808 426 792T493 775Q503 775 519 786T548 809L559 820H565L584 799V794L501 715L485 711Q468 711 415 727T349 744Q339 744 323 733T294 710L283 699Z" />
<glyph unicode="&#xd2;" glyph-name="Ograve" horiz-adv-x="663" d="M311 35Q417 35 487 122T557 343Q557 456 506 524T368 593Q265 593 196 505T127 285Q127 172 177 104T311 35ZM286 -12Q179 -12 112 62T45 254Q45 416 148 532T397 648Q506 648 575 574T644
382Q644 219 539 104T286 -12ZM256 777L252 787L268 835L277 841Q382 781 476 732L470 708L462 703L256 777Z" />
<glyph unicode="&#xd3;" glyph-name="Oacute" horiz-adv-x="663" d="M311 35Q417 35 487 122T557 343Q557 456 506 524T368 593Q265 593 196 505T127 285Q127 172 177 104T311 35ZM286 -12Q179 -12 112 62T45 254Q45 416 148 532T397 648Q506 648 575 574T644
382Q644 219 539 104T286 -12ZM529 787L525 777Q424 743 319 703L311 708L305 732L504 841L513 835L529 787Z" />
<glyph unicode="&#xd4;" glyph-name="Ocircumflex" horiz-adv-x="663" d="M311 35Q417 35 487 122T557 343Q557 456 506 524T368 593Q265 593 196 505T127 285Q127 172 177 104T311 35ZM286 -12Q179 -12 112 62T45 254Q45 416 148 532T397 648Q506 648 575 574T644
382Q644 219 539 104T286 -12ZM258 713L247 735L394 846H408L528 735L511 713L502 712L392 777L267 712L258 713Z" />
<glyph unicode="&#xd5;" glyph-name="Otilde" horiz-adv-x="663" d="M311 35Q417 35 487 122T557 343Q557 456 506 524T368 593Q265 593 196 505T127 285Q127 172 177 104T311 35ZM286 -12Q179 -12 112 62T45 254Q45 416 148 532T397 648Q506 648 575 574T644
382Q644 219 539 104T286 -12ZM264 699H258L238 720L239 725L322 804L337 808Q354 808 407 792T474 775Q484 775 500 786T528 809L540 820H546L565 799V794L482 715L466 711Q449 711 396 727T330 744Q320 744 304 733T276 710L264 699Z" />
<glyph unicode="&#xd6;" glyph-name="Odieresis" horiz-adv-x="663" d="M311 35Q417 35 487 122T557 343Q557 456 506 524T368 593Q265 593 196 505T127 285Q127 172 177 104T311 35ZM286 -12Q179 -12 112 62T45 254Q45 416 148 532T397 648Q506 648 575 574T644
382Q644 219 539 104T286 -12ZM461 725Q444 725 435 736T426 763Q426 785 442 801T481 818Q498 818 507 807T517 780Q517 758 501 742T461 725ZM301 725Q284 725 275 736T266 763Q266 785 282 801T321 818Q338 818 347 807T357 780Q357 758 341 742T301 725Z" />
<glyph unicode="&#xd7;" glyph-name="multiply" horiz-adv-x="486" d="M404 449L414 446L440 404L287 261L409 126L404 114L359 84L243 222L92 80L82 83L60 125Q141 199 208 261L87 405L90 416L137 442Q201 363 253 301L404 449Z" />
<glyph unicode="&#xd8;" glyph-name="Oslash" horiz-adv-x="663" d="M108 -82L161 21Q106 54 76 115T45 254Q45 416 148 532T397 648Q442 648 482 634L521 708L550 701L553 689L515 619Q575 587 609 525T644 382Q644 219 539 104T286 -12Q239 -12 192 6L137 -98L110
-92L108 -82ZM311 35Q417 35 487 122T557 343Q557 484 479 552L221 61Q261 35 311 35ZM127 285Q127 153 194 84L450 572Q411 593 368 593Q265 593 196 505T127 285Z" />
<glyph unicode="&#xd9;" glyph-name="Ugrave" horiz-adv-x="652" d="M222 546L178 252Q175 225 175 202Q175 124 210 83T315 41Q395 41 442 85T500 215L535 542Q537 577 532 586T506 596L463 594V598L474 639Q545 636 581 636Q599 636 622 638T660 644L675 646L665
603Q622 598 609 588T592 546L550 206Q537 103 468 46T286 -12Q196 -12 148 35T101 170Q101 189 104 210L145 542Q149 575 143 585T115 596L82 594L81 598L93 639Q163 636 199 636Q217 636 242 638T284 644L300 646L291 603Q255 598 241 587T222 546ZM261 777L257
787L273 835L282 841Q387 781 481 732L475 708L467 703L261 777Z" />
<glyph unicode="&#xda;" glyph-name="Uacute" horiz-adv-x="652" d="M222 546L178 252Q175 225 175 202Q175 124 210 83T315 41Q395 41 442 85T500 215L535 542Q537 577 532 586T506 596L463 594V598L474 639Q545 636 581 636Q599 636 622 638T660 644L675 646L665
603Q622 598 609 588T592 546L550 206Q537 103 468 46T286 -12Q196 -12 148 35T101 170Q101 189 104 210L145 542Q149 575 143 585T115 596L82 594L81 598L93 639Q163 636 199 636Q217 636 242 638T284 644L300 646L291 603Q255 598 241 587T222 546ZM564 787L560
777Q459 743 354 703L346 708L340 732L539 841L548 835L564 787Z" />
<glyph unicode="&#xdb;" glyph-name="Ucircumflex" horiz-adv-x="652" d="M222 546L178 252Q175 225 175 202Q175 124 210 83T315 41Q395 41 442 85T500 215L535 542Q537 577 532 586T506 596L463 594V598L474 639Q545 636 581 636Q599 636 622 638T660 644L675
646L665 603Q622 598 609 588T592 546L550 206Q537 103 468 46T286 -12Q196 -12 148 35T101 170Q101 189 104 210L145 542Q149 575 143 585T115 596L82 594L81 598L93 639Q163 636 199 636Q217 636 242 638T284 644L300 646L291 603Q255 598 241 587T222 546ZM273
713L262 735L409 846H423L543 735L526 713L517 712L407 777L282 712L273 713Z" />
<glyph unicode="&#xdc;" glyph-name="Udieresis" horiz-adv-x="652" d="M222 546L178 252Q175 225 175 202Q175 124 210 83T315 41Q395 41 442 85T500 215L535 542Q537 577 532 586T506 596L463 594V598L474 639Q545 636 581 636Q599 636 622 638T660 644L675
646L665 603Q622 598 609 588T592 546L550 206Q537 103 468 46T286 -12Q196 -12 148 35T101 170Q101 189 104 210L145 542Q149 575 143 585T115 596L82 594L81 598L93 639Q163 636 199 636Q217 636 242 638T284 644L300 646L291 603Q255 598 241 587T222 546ZM476
725Q459 725 450 736T441 763Q441 785 457 801T496 818Q513 818 522 807T532 780Q532 758 516 742T476 725ZM316 725Q299 725 290 736T281 763Q281 785 297 801T336 818Q353 818 362 807T372 780Q372 758 356 742T316 725Z" />
<glyph unicode="&#xdd;" glyph-name="Yacute" horiz-adv-x="520" d="M195 567Q195 551 214 485T253 361T272 304H276L415 522Q436 554 436 575Q436 599 379 603L377 607L388 644Q387 644 405 642T450 638T492 636L581 640L584 634L573 599Q528 591 508 573T445
490Q436 476 431 469L314 294Q308 286 304 279T297 260T291 242T286 218T282 190T276 153T270 110Q265 70 271 56T303 41L350 44L352 40L338 -3Q260 0 219 0Q198 0 171 -3T126 -9L110 -12L121 31Q172 42 187 62T209 141L214 186Q220 246 200 301L137 483Q135 489
129 506T122 527T116 543T109 559T101 570T92 580T82 587T68 593T51 597T30 600L28 604L39 640Q98 636 142 636Q166 636 200 638T257 642L279 645L281 638L273 605Q225 601 210 593T195 567ZM502 787L498 777Q397 743 292 703L284 708L278 732L477 841L486 835L502
787Z" />
<glyph unicode="&#xde;" glyph-name="Thorn" horiz-adv-x="523" d="M260 544L253 503H331Q422 503 470 466T519 360Q519 275 442 212T266 148H198L193 112Q188 71 195 58T227 44L278 47L279 43L265 -3Q183 0 138 0Q116 0 88 -3T42 -9L24 -12L36 34Q82 43 100 60T123
120L175 540Q179 572 173 583T146 594L106 592L104 596L117 640H126Q134 639 147 639T174 638T205 638T232 637Q252 637 280 639T326 644L345 646L335 601Q295 596 280 585T260 544ZM243 446Q217 286 206 209Q247 194 301 192Q432 209 432 341Q432 399 393 426T269
454Q245 454 243 446Z" />
<glyph unicode="&#xdf;" glyph-name="germandbls" horiz-adv-x="882" d="M169 -9Q135 -9 102 -3T53 10L37 17L34 26Q52 87 62 161L103 165Q92 84 108 59T185 34Q236 34 268 58T301 121Q301 148 279 168T215 212Q139 254 117 277Q85 309 85 348Q85 415 142 461T283
507Q315 507 347 502T395 492L411 487L413 482Q393 421 379 349L343 346L338 350Q346 382 346 403Q346 434 328 446T264 459T189 437T158 382Q158 345 218 306Q231 298 259 283T304 257T341 230T370 195T380 154Q380 83 321 37T169 -9ZM610 -9Q576 -9 543 -3T494
10L478 17L475 26Q493 87 503 161L544 165Q533 84 549 59T626 34Q677 34 709 58T742 121Q742 148 720 168T656 212Q580 254 558 277Q526 309 526 348Q526 415 583 461T724 507Q756 507 788 502T836 492L852 487L854 482Q834 421 820 349L784 346L779 350Q787 382
787 403Q787 434 769 446T705 459T630 437T599 382Q599 345 659 306Q672 298 700 283T745 257T782 230T811 195T821 154Q821 83 762 37T610 -9Z" />
<glyph unicode="&#xe0;" glyph-name="agrave" horiz-adv-x="490" d="M401 92Q407 62 420 51T466 36L468 33L459 -2Q401 0 372 0Q345 0 315 -1T268 -5L251 -7L249 -2L256 32Q300 35 314 42T328 69Q328 82 325 97L312 176Q303 176 273 176T232 177Q199 177 148 171L112
94Q101 73 101 61Q101 35 142 35H185V32L177 -5Q119 0 67 0L-22 -2L-11 38Q11 40 26 52T56 96L253 493L320 507L327 506Q365 257 401 92ZM264 416L169 215H235Q269 215 305 219L271 416H264ZM171 637L167 647L183 695L192 701Q297 641 391 592L385 568L377 563L171
637Z" />
<glyph unicode="&#xe1;" glyph-name="aacute" horiz-adv-x="490" d="M401 92Q407 62 420 51T466 36L468 33L459 -2Q401 0 372 0Q345 0 315 -1T268 -5L251 -7L249 -2L256 32Q300 35 314 42T328 69Q328 82 325 97L312 176Q303 176 273 176T232 177Q199 177 148 171L112
94Q101 73 101 61Q101 35 142 35H185V32L177 -5Q119 0 67 0L-22 -2L-11 38Q11 40 26 52T56 96L253 493L320 507L327 506Q365 257 401 92ZM264 416L169 215H235Q269 215 305 219L271 416H264ZM448 647L444 637Q343 603 238 563L230 568L224 592L423 701L432 695L448
647Z" />
<glyph unicode="&#xe2;" glyph-name="acircumflex" horiz-adv-x="490" d="M401 92Q407 62 420 51T466 36L468 33L459 -2Q401 0 372 0Q345 0 315 -1T268 -5L251 -7L249 -2L256 32Q300 35 314 42T328 69Q328 82 325 97L312 176Q303 176 273 176T232 177Q199 177
148 171L112 94Q101 73 101 61Q101 35 142 35H185V32L177 -5Q119 0 67 0L-22 -2L-11 38Q11 40 26 52T56 96L253 493L320 507L327 506Q365 257 401 92ZM264 416L169 215H235Q269 215 305 219L271 416H264ZM172 573L161 595L308 706H322L442 595L425 573L416 572L306
637L181 572L172 573Z" />
<glyph unicode="&#xe3;" glyph-name="atilde" horiz-adv-x="490" d="M401 92Q407 62 420 51T466 36L468 33L459 -2Q401 0 372 0Q345 0 315 -1T268 -5L251 -7L249 -2L256 32Q300 35 314 42T328 69Q328 82 325 97L312 176Q303 176 273 176T232 177Q199 177 148 171L112
94Q101 73 101 61Q101 35 142 35H185V32L177 -5Q119 0 67 0L-22 -2L-11 38Q11 40 26 52T56 96L253 493L320 507L327 506Q365 257 401 92ZM264 416L169 215H235Q269 215 305 219L271 416H264ZM167 559H161L141 580L142 585L225 664L240 668Q257 668 310 652T377
635Q387 635 403 646T432 669L443 680H449L468 659V654L385 575L369 571Q352 571 299 587T233 604Q223 604 207 593T178 570L167 559Z" />
<glyph unicode="&#xe4;" glyph-name="adieresis" horiz-adv-x="490" d="M401 92Q407 62 420 51T466 36L468 33L459 -2Q401 0 372 0Q345 0 315 -1T268 -5L251 -7L249 -2L256 32Q300 35 314 42T328 69Q328 82 325 97L312 176Q303 176 273 176T232 177Q199 177 148
171L112 94Q101 73 101 61Q101 35 142 35H185V32L177 -5Q119 0 67 0L-22 -2L-11 38Q11 40 26 52T56 96L253 493L320 507L327 506Q365 257 401 92ZM264 416L169 215H235Q269 215 305 219L271 416H264ZM375 585Q358 585 349 596T340 623Q340 645 356 661T395 678Q412
678 421 667T431 640Q431 618 415 602T375 585ZM215 585Q198 585 189 596T180 623Q180 645 196 661T235 678Q252 678 261 667T271 640Q271 618 255 602T215 585Z" />
<glyph unicode="&#xe5;" glyph-name="aring" horiz-adv-x="490" d="M401 92Q407 62 420 51T466 36L468 33L459 -2Q401 0 372 0Q345 0 315 -1T268 -5L251 -7L249 -2L256 32Q300 35 314 42T328 69Q328 82 325 97L312 176Q303 176 273 176T232 177Q199 177 148 171L112
94Q101 73 101 61Q101 35 142 35H185V32L177 -5Q119 0 67 0L-22 -2L-11 38Q11 40 26 52T56 96L253 493L320 507L327 506Q365 257 401 92ZM264 416L169 215H235Q269 215 305 219L271 416H264ZM300 572Q348 572 348 617Q348 659 304 659Q282 659 270 647T257 614T270
583T300 572ZM289 534Q258 534 241 552T224 602Q224 643 250 670T317 698Q351 698 367 679T383 632Q383 593 357 564T289 534Z" />
<glyph unicode="&#xe6;" glyph-name="ae" horiz-adv-x="676" d="M237 34Q316 40 316 93Q316 97 316 106T317 120L315 208L238 202L167 192L106 95Q90 68 90 58Q90 46 99 42T131 37L170 36L160 -5Q94 0 45 0L-10 -3L-11 31Q-9 31 -1 38T20 62T46 97L272 445Q269
459 254 459L228 458L225 462L236 500Q313 498 382 498Q556 498 624 507L626 502Q606 440 592 368L543 364Q550 393 550 411Q550 437 530 444T438 451Q406 451 396 446T386 427L389 261L477 270L552 282L557 276L541 227L471 224L390 217L395 96Q396 67 408 55T451
43Q530 43 553 58T594 137L639 141L642 136Q619 70 604 0L599 -5Q600 -4 558 -3T456 -1T353 0Q325 0 295 -1T249 -5L233 -7L231 -2L237 34ZM197 243L259 247L314 252L313 413H304L197 243Z" />
<glyph unicode="&#xe7;" glyph-name="ccedilla" horiz-adv-x="515" d="M216 -85L248 -8Q156 -3 102 52T47 200Q47 334 132 420T350 507Q379 507 415 503T474 493L496 488L499 482Q476 422 462 348L416 344Q423 377 423 392Q423 455 322 455Q237 455 185 391T132
220Q132 135 170 86T277 37Q377 37 419 157L465 161Q441 87 429 30L423 22Q369 -3 289 -8L270 -50Q273 -52 284 -61T301 -74T316 -87T329 -102T338 -118T342 -135Q342 -173 300 -203T214 -233Q191 -233 172 -224T152 -199Q152 -183 184 -141H192Q190 -168 202 -183T238
-198Q259 -198 274 -187T289 -158Q289 -132 216 -85Z" />
<glyph unicode="&#xe8;" glyph-name="egrave" horiz-adv-x="488" d="M173 71Q173 52 184 47T229 41Q318 41 344 56T387 135L429 139L431 134Q409 68 393 0L388 -5Q229 0 149 0Q121 0 92 -2T48 -6L33 -8L43 32Q78 36 92 50T111 98L151 418Q154 444 150 452T128
460L102 459L100 463L110 500Q177 497 227 497Q391 497 465 507L467 502Q447 441 433 369L388 366Q395 395 395 414Q395 440 375 446T284 453Q248 453 240 449T228 424L204 279Q212 279 241 279T283 278L379 286L382 282L365 231Q299 233 257 233Q228 233 196 228Q192
198 186 161T176 103T173 71ZM179 637L175 647L191 695L200 701Q305 641 399 592L393 568L385 563L179 637Z" />
<glyph unicode="&#xe9;" glyph-name="eacute" horiz-adv-x="488" d="M173 71Q173 52 184 47T229 41Q318 41 344 56T387 135L429 139L431 134Q409 68 393 0L388 -5Q229 0 149 0Q121 0 92 -2T48 -6L33 -8L43 32Q78 36 92 50T111 98L151 418Q154 444 150 452T128
460L102 459L100 463L110 500Q177 497 227 497Q391 497 465 507L467 502Q447 441 433 369L388 366Q395 395 395 414Q395 440 375 446T284 453Q248 453 240 449T228 424L204 279Q212 279 241 279T283 278L379 286L382 282L365 231Q299 233 257 233Q228 233 196 228Q192
198 186 161T176 103T173 71ZM425 647L421 637Q320 603 215 563L207 568L201 592L400 701L409 695L425 647Z" />
<glyph unicode="&#xea;" glyph-name="ecircumflex" horiz-adv-x="488" d="M173 71Q173 52 184 47T229 41Q318 41 344 56T387 135L429 139L431 134Q409 68 393 0L388 -5Q229 0 149 0Q121 0 92 -2T48 -6L33 -8L43 32Q78 36 92 50T111 98L151 418Q154 444 150 452T128
460L102 459L100 463L110 500Q177 497 227 497Q391 497 465 507L467 502Q447 441 433 369L388 366Q395 395 395 414Q395 440 375 446T284 453Q248 453 240 449T228 424L204 279Q212 279 241 279T283 278L379 286L382 282L365 231Q299 233 257 233Q228 233 196 228Q192
198 186 161T176 103T173 71ZM181 573L170 595L317 706H331L451 595L434 573L425 572L315 637L190 572L181 573Z" />
<glyph unicode="&#xeb;" glyph-name="edieresis" horiz-adv-x="488" d="M173 71Q173 52 184 47T229 41Q318 41 344 56T387 135L429 139L431 134Q409 68 393 0L388 -5Q229 0 149 0Q121 0 92 -2T48 -6L33 -8L43 32Q78 36 92 50T111 98L151 418Q154 444 150 452T128
460L102 459L100 463L110 500Q177 497 227 497Q391 497 465 507L467 502Q447 441 433 369L388 366Q395 395 395 414Q395 440 375 446T284 453Q248 453 240 449T228 424L204 279Q212 279 241 279T283 278L379 286L382 282L365 231Q299 233 257 233Q228 233 196 228Q192
198 186 161T176 103T173 71ZM384 585Q367 585 358 596T349 623Q349 645 365 661T404 678Q421 678 430 667T440 640Q440 618 424 602T384 585ZM224 585Q207 585 198 596T189 623Q189 645 205 661T244 678Q261 678 270 667T280 640Q280 618 264 602T224 585Z" />
<glyph unicode="&#xec;" glyph-name="igrave" horiz-adv-x="307" d="M228 422Q174 117 174 71Q174 53 181 46T203 38L243 40L245 37L233 -2Q164 0 127 0Q109 0 85 -2T46 -6L31 -9L41 30Q78 37 92 51T111 97L151 419Q154 443 150 451T127 460L95 459L94 460Q94
462 94 463L104 500Q105 500 122 499T163 498T201 497L297 505L288 465Q256 461 244 453T228 422ZM85 637L81 647L97 695L106 701Q211 641 305 592L299 568L291 563L85 637Z" />
<glyph unicode="&#xed;" glyph-name="iacute" horiz-adv-x="307" d="M228 422Q174 117 174 71Q174 53 181 46T203 38L243 40L245 37L233 -2Q164 0 127 0Q109 0 85 -2T46 -6L31 -9L41 30Q78 37 92 51T111 97L151 419Q154 443 150 451T127 460L95 459L94 460Q94
462 94 463L104 500Q105 500 122 499T163 498T201 497L297 505L288 465Q256 461 244 453T228 422ZM335 647L331 637Q230 603 125 563L117 568L111 592L310 701L319 695L335 647Z" />
<glyph unicode="&#xee;" glyph-name="icircumflex" horiz-adv-x="307" d="M228 422Q174 117 174 71Q174 53 181 46T203 38L243 40L245 37L233 -2Q164 0 127 0Q109 0 85 -2T46 -6L31 -9L41 30Q78 37 92 51T111 97L151 419Q154 443 150 451T127 460L95 459L94 460Q94
462 94 463L104 500Q105 500 122 499T163 498T201 497L297 505L288 465Q256 461 244 453T228 422ZM77 573L66 595L213 706H227L347 595L330 573L321 572L211 637L86 572L77 573Z" />
<glyph unicode="&#xef;" glyph-name="idieresis" horiz-adv-x="307" d="M228 422Q174 117 174 71Q174 53 181 46T203 38L243 40L245 37L233 -2Q164 0 127 0Q109 0 85 -2T46 -6L31 -9L41 30Q78 37 92 51T111 97L151 419Q154 443 150 451T127 460L95 459L94 460Q94
462 94 463L104 500Q105 500 122 499T163 498T201 497L297 505L288 465Q256 461 244 453T228 422ZM280 585Q263 585 254 596T245 623Q245 645 261 661T300 678Q317 678 326 667T336 640Q336 618 320 602T280 585ZM120 585Q103 585 94 596T85 623Q85 645 101 661T140
678Q157 678 166 667T176 640Q176 618 160 602T120 585Z" />
<glyph unicode="&#xf0;" glyph-name="eth" horiz-adv-x="582" d="M258 -9Q178 0 137 0Q119 0 96 -2T58 -6L43 -9L52 31Q90 38 104 51T122 97L138 233H33L28 238L38 270H143L161 418Q164 444 160 452T139 460L111 459L110 463L120 500Q176 497 206 497L320 501Q426
501 492 445T559 295Q559 168 471 80T258 -9ZM270 457Q255 457 250 454T242 439L213 270H336L340 265L331 233H207Q187 115 187 88Q187 58 205 48T273 37Q364 37 419 104T474 281Q474 367 422 412T270 457Z" />
<glyph unicode="&#xf1;" glyph-name="ntilde" horiz-adv-x="590" d="M436 128H440L477 426Q481 460 455 460L426 459L424 463L436 501Q488 497 516 497L598 504L590 464Q537 457 530 415L466 -18L430 -29Q377 72 320 174T232 330L201 382H196L153 70Q151 52 156
45T175 38H213L216 35L204 -3Q151 0 117 0L37 -6L47 33Q96 39 101 82L153 416Q156 440 143 450T91 464Q89 468 89 469L98 501Q145 497 171 497L228 501Q273 415 325 322T406 178L436 128ZM218 559H212L192 580L193 585L276 664L291 668Q308 668 361 652T428 635Q438
635 454 646T482 669L494 680H500L519 659V654L436 575L420 571Q403 571 350 587T284 604Q274 604 258 593T230 570L218 559Z" />
<glyph unicode="&#xf2;" glyph-name="ograve" horiz-adv-x="564" d="M269 37Q350 37 402 102T454 273Q454 355 415 404T310 454Q231 454 180 388T128 218Q128 135 166 86T269 37ZM248 -9Q158 -9 103 48T47 200Q47 330 130 418T334 507Q426 507 482 450T539 298Q539
168 455 80T248 -9ZM203 637L199 647L215 695L224 701Q329 641 423 592L417 568L409 563L203 637Z" />
<glyph unicode="&#xf3;" glyph-name="oacute" horiz-adv-x="564" d="M269 37Q350 37 402 102T454 273Q454 355 415 404T310 454Q231 454 180 388T128 218Q128 135 166 86T269 37ZM248 -9Q158 -9 103 48T47 200Q47 330 130 418T334 507Q426 507 482 450T539 298Q539
168 455 80T248 -9ZM458 647L454 637Q353 603 248 563L240 568L234 592L433 701L442 695L458 647Z" />
<glyph unicode="&#xf4;" glyph-name="ocircumflex" horiz-adv-x="564" d="M269 37Q350 37 402 102T454 273Q454 355 415 404T310 454Q231 454 180 388T128 218Q128 135 166 86T269 37ZM248 -9Q158 -9 103 48T47 200Q47 330 130 418T334 507Q426 507 482 450T539
298Q539 168 455 80T248 -9ZM197 573L186 595L333 706H347L467 595L450 573L441 572L331 637L206 572L197 573Z" />
<glyph unicode="&#xf5;" glyph-name="otilde" horiz-adv-x="564" d="M269 37Q350 37 402 102T454 273Q454 355 415 404T310 454Q231 454 180 388T128 218Q128 135 166 86T269 37ZM248 -9Q158 -9 103 48T47 200Q47 330 130 418T334 507Q426 507 482 450T539 298Q539
168 455 80T248 -9ZM200 559H194L174 580L175 585L258 664L273 668Q290 668 343 652T410 635Q420 635 436 646T464 669L476 680H482L501 659V654L418 575L402 571Q385 571 332 587T266 604Q256 604 240 593T212 570L200 559Z" />
<glyph unicode="&#xf6;" glyph-name="odieresis" horiz-adv-x="564" d="M269 37Q350 37 402 102T454 273Q454 355 415 404T310 454Q231 454 180 388T128 218Q128 135 166 86T269 37ZM248 -9Q158 -9 103 48T47 200Q47 330 130 418T334 507Q426 507 482 450T539
298Q539 168 455 80T248 -9ZM400 585Q383 585 374 596T365 623Q365 645 381 661T420 678Q437 678 446 667T456 640Q456 618 440 602T400 585ZM240 585Q223 585 214 596T205 623Q205 645 221 661T260 678Q277 678 286 667T296 640Q296 618 280 602T240 585Z" />
<glyph unicode="&#xf7;" glyph-name="divide" horiz-adv-x="486" d="M472 297L477 287L463 236L245 235L25 234L20 243L37 292Q180 291 266 291L472 297ZM212 29Q189 29 177 43T164 79Q164 107 183 127T232 148Q256 148 268 134T281 98Q281 70 262 50T212 29ZM255
378Q231 378 219 392T207 428Q207 456 226 476T275 497Q299 497 311 483T324 447Q324 419 305 399T255 378Z" />
<glyph unicode="&#xf8;" glyph-name="oslash" horiz-adv-x="564" d="M90 -62L137 21Q47 77 47 200Q47 330 130 418T334 507Q371 507 406 496L438 553L465 545L467 535L437 483Q485 457 512 409T539 298Q539 168 455 80T248 -9Q207 -9 165 6L117 -77L92 -70L90
-62ZM269 37Q350 37 402 102T454 273Q454 371 400 420L195 58Q226 37 269 37ZM128 218Q128 130 171 81L373 439Q343 454 310 454Q231 454 180 388T128 218Z" />
<glyph unicode="&#xf9;" glyph-name="ugrave" horiz-adv-x="554" d="M200 421L166 193Q164 180 164 156Q164 100 191 71T271 41Q397 41 411 166L439 418Q441 445 437 452T416 460L383 459L382 462L392 500Q451 497 481 497L563 504L554 465Q520 460 510 453T496
422L464 164Q454 81 398 36T247 -9Q171 -9 131 27T91 131Q90 145 93 162L125 418Q127 444 123 452T101 460L74 459L73 462L84 500Q144 497 177 497L263 504L255 465Q226 461 215 452T200 421ZM206 637L202 647L218 695L227 701Q332 641 426 592L420 568L412 563L206
637Z" />
<glyph unicode="&#xfa;" glyph-name="uacute" horiz-adv-x="554" d="M200 421L166 193Q164 180 164 156Q164 100 191 71T271 41Q397 41 411 166L439 418Q441 445 437 452T416 460L383 459L382 462L392 500Q451 497 481 497L563 504L554 465Q520 460 510 453T496
422L464 164Q454 81 398 36T247 -9Q171 -9 131 27T91 131Q90 145 93 162L125 418Q127 444 123 452T101 460L74 459L73 462L84 500Q144 497 177 497L263 504L255 465Q226 461 215 452T200 421ZM483 647L479 637Q378 603 273 563L265 568L259 592L458 701L467 695L483
647Z" />
<glyph unicode="&#xfb;" glyph-name="ucircumflex" horiz-adv-x="554" d="M200 421L166 193Q164 180 164 156Q164 100 191 71T271 41Q397 41 411 166L439 418Q441 445 437 452T416 460L383 459L382 462L392 500Q451 497 481 497L563 504L554 465Q520 460 510 453T496
422L464 164Q454 81 398 36T247 -9Q171 -9 131 27T91 131Q90 145 93 162L125 418Q127 444 123 452T101 460L74 459L73 462L84 500Q144 497 177 497L263 504L255 465Q226 461 215 452T200 421ZM209 573L198 595L345 706H359L479 595L462 573L453 572L343 637L218
572L209 573Z" />
<glyph unicode="&#xfc;" glyph-name="udieresis" horiz-adv-x="554" d="M200 421L166 193Q164 180 164 156Q164 100 191 71T271 41Q397 41 411 166L439 418Q441 445 437 452T416 460L383 459L382 462L392 500Q451 497 481 497L563 504L554 465Q520 460 510 453T496
422L464 164Q454 81 398 36T247 -9Q171 -9 131 27T91 131Q90 145 93 162L125 418Q127 444 123 452T101 460L74 459L73 462L84 500Q144 497 177 497L263 504L255 465Q226 461 215 452T200 421ZM411 585Q394 585 385 596T376 623Q376 645 392 661T431 678Q448 678
457 667T467 640Q467 618 451 602T411 585ZM251 585Q234 585 225 596T216 623Q216 645 232 661T271 678Q288 678 297 667T307 640Q307 618 291 602T251 585Z" />
<glyph unicode="&#xfd;" glyph-name="yacute" horiz-adv-x="461" d="M184 438Q184 429 193 398T214 334T234 274L244 247H249L353 405Q370 430 370 445Q370 462 325 465L323 469L333 503Q334 503 350 502T388 499T423 497L498 500L501 495L491 462Q465 457 448
445T419 419T377 361L283 224Q279 219 276 213T271 203T266 190T263 177T260 160T257 142T254 118T250 91Q245 60 251 49T278 38L317 40L318 37L307 -3Q236 0 201 0Q183 0 158 -2T118 -6L102 -9L112 30Q155 38 168 53T186 112L189 144Q194 190 177 231L123 375Q102
430 91 441Q75 457 37 462L35 466L45 500Q99 497 134 497L250 504L252 498L245 467Q208 464 196 458T184 438ZM441 647L437 637Q336 603 231 563L223 568L217 592L416 701L425 695L441 647Z" />
<glyph unicode="&#xfe;" glyph-name="thorn" horiz-adv-x="453" d="M227 423L222 394H286Q362 394 402 365T442 280Q442 213 379 164T234 114H178L175 88Q171 58 176 48T202 38L244 41V37L234 -2Q163 0 126 0Q108 0 84 -2T45 -6L30 -9L40 31Q77 38 91 51T109 98L150
418Q153 443 149 451T126 460L94 459L92 463L102 500Q103 500 121 500T162 499T200 498L296 505L287 465Q254 460 242 452T227 423ZM214 343Q208 310 185 168Q217 156 261 154Q363 168 363 265Q363 351 235 351Q215 351 214 343Z" />
<glyph unicode="&#xff;" glyph-name="ydieresis" horiz-adv-x="461" d="M184 438Q184 429 193 398T214 334T234 274L244 247H249L353 405Q370 430 370 445Q370 462 325 465L323 469L333 503Q334 503 350 502T388 499T423 497L498 500L501 495L491 462Q465 457
448 445T419 419T377 361L283 224Q279 219 276 213T271 203T266 190T263 177T260 160T257 142T254 118T250 91Q245 60 251 49T278 38L317 40L318 37L307 -3Q236 0 201 0Q183 0 158 -2T118 -6L102 -9L112 30Q155 38 168 53T186 112L189 144Q194 190 177 231L123
375Q102 430 91 441Q75 457 37 462L35 466L45 500Q99 497 134 497L250 504L252 498L245 467Q208 464 196 458T184 438ZM369 585Q352 585 343 596T334 623Q334 645 350 661T389 678Q406 678 415 667T425 640Q425 618 409 602T369 585ZM209 585Q192 585 183 596T174
623Q174 645 190 661T229 678Q246 678 255 667T265 640Q265 618 249 602T209 585Z" />
</font>
</defs>
</svg>
